<?xml version="1.0" standalone="no"?>
<!DOCTYPE svg PUBLIC "-//W3C//DTD SVG 20010904//EN"
 "http://www.w3.org/TR/2001/REC-SVG-20010904/DTD/svg10.dtd">
<svg version="1.0" xmlns="http://www.w3.org/2000/svg"
 width="728.000000pt" height="410.000000pt" viewBox="0 0 728.000000 410.000000"
 preserveAspectRatio="xMidYMid meet">

<g transform="translate(0.000000,410.000000) scale(0.100000,-0.100000)"
fill="#000000" stroke="none">
<path d="M0 2908 l1 -1193 64 120 c36 66 65 127 65 135 0 18 70 124 77 117 2
-3 -16 -40 -40 -84 -24 -43 -64 -116 -87 -163 -23 -47 -51 -97 -61 -112 -18
-25 -19 -52 -19 -462 0 -410 1 -435 17 -430 17 5 17 5 0 -9 -16 -13 -17 -46
-17 -421 l0 -406 364 0 365 0 4 52 3 53 2 -52 2 -53 1242 0 1241 0 -19 21
c-10 12 -45 39 -76 62 -32 22 -58 45 -58 50 0 6 12 0 28 -14 48 -44 112 -90
112 -82 0 4 -9 23 -20 41 -12 19 -16 31 -11 27 6 -3 22 -28 37 -55 l27 -49 58
0 c45 1 59 4 62 17 4 15 5 15 6 0 1 -17 101 -18 1956 -18 l1955 0 0 792 c0
436 -4 787 -8 781 -9 -14 -31 26 -93 171 -59 137 -46 126 31 -24 l69 -135 0
1258 1 1257 -2273 -1 c-2436 0 -2303 2 -2107 -45 88 -21 125 -41 157 -83 62
-83 201 -208 265 -237 32 -14 32 -15 4 -9 -53 11 -142 89 -293 258 -23 25 -44
38 -70 42 -21 3 -74 17 -118 30 -44 14 -114 30 -155 35 -41 5 -340 10 -664 10
-560 0 -588 -1 -574 -17 8 -10 18 -25 23 -33 4 -8 -5 0 -21 18 l-29 33 -445
-4 c-253 -2 -469 -8 -501 -14 -79 -15 -113 -36 -160 -98 -41 -55 -58 -71 -40
-37 20 36 84 103 114 119 17 8 54 19 82 23 30 5 -55 8 -212 9 l-263 1 0 -1192z
m2630 1173 c-8 -5 -70 -11 -137 -13 -121 -5 -124 -6 -217 -51 -116 -56 -202
-137 -270 -253 -51 -87 -61 -92 -20 -11 33 65 50 87 127 165 77 79 208 147
307 161 86 11 229 13 210 2z m2964 -68 c-14 -31 -31 -79 -39 -107 -8 -28 -14
-41 -14 -29 -1 32 61 193 74 193 2 0 -7 -26 -21 -57z m-4093 0 c13 -16 12 -17
-3 -4 -10 7 -18 15 -18 17 0 8 8 3 21 -13z m111 -86 c23 -18 23 -18 -7 -2 -39
21 -57 35 -75 60 -9 12 0 8 22 -10 20 -16 47 -38 60 -48z m4847 -82 c25 -131
25 -122 6 -122 -19 0 -22 16 -29 133 -3 50 -8 100 -12 110 -4 15 -3 16 4 4 5
-8 19 -64 31 -125z m-6232 -14 c-23 -50 -43 -88 -45 -86 -5 4 75 175 82 175 2
0 -14 -40 -37 -89z m4288 74 c39 -6 119 -60 161 -107 10 -11 -12 3 -49 33 -74
59 -91 66 -152 68 -22 1 -47 6 -55 12 -15 10 -4 9 95 -6z m-2874 -31 c7 -9 14
-22 15 -30 2 -14 67 -95 72 -89 2 2 -1 13 -8 24 -6 12 -8 21 -6 21 10 0 37
-61 34 -76 -2 -12 -105 107 -132 154 -10 18 9 15 25 -4z m40 -1 c13 -16 12
-17 -3 -4 -10 7 -18 15 -18 17 0 8 8 3 21 -13z m2739 -172 c12 -36 23 -73 26
-81 3 -8 -2 -3 -10 11 -24 42 -56 170 -55 219 1 41 2 39 10 -19 4 -36 18 -94
29 -130z m1117 97 c-2 -13 -4 -5 -4 17 -1 22 1 32 4 23 2 -10 2 -28 0 -40z
m-3777 -3 c13 -14 21 -25 18 -25 -2 0 -15 11 -28 25 -13 14 -21 25 -18 25 2 0
15 -11 28 -25z m3273 -36 c34 -18 98 -52 141 -77 44 -24 117 -57 162 -72 46
-16 91 -33 101 -40 21 -13 22 -13 -107 31 -52 17 -106 40 -120 49 -14 10 -74
43 -133 75 -92 49 -113 56 -145 51 -26 -4 -31 -3 -17 4 34 15 53 11 118 -21z
m1089 -51 c2 -25 0 -44 -4 -41 -5 2 -7 32 -7 66 2 65 6 55 11 -25z m-1273 22
c-24 -21 -48 -39 -53 -40 -11 0 -13 -2 42 44 59 48 66 46 11 -4z m-3051 5 c-3
-3 -9 2 -12 12 -6 14 -5 15 5 6 7 -7 10 -15 7 -18z m2943 8 c13 -16 12 -17 -3
-4 -17 13 -22 21 -14 21 2 0 10 -8 17 -17z m927 -100 l-2 -108 -3 98 c-3 67
-7 97 -16 97 -7 0 -6 4 3 10 8 5 16 10 18 10 1 0 1 -48 0 -107z m-5504 16
c-21 -81 -14 -233 15 -334 18 -64 19 -76 6 -145 -13 -76 -58 -217 -74 -233 -5
-5 7 37 26 94 46 135 51 200 24 316 -25 108 -27 220 -5 309 9 36 19 63 21 60
2 -2 -3 -32 -13 -67z m6353 19 c-3 -7 -5 -2 -5 12 0 14 2 19 5 13 2 -7 2 -19
0 -25z m-3207 -30 c0 -28 -2 -49 -4 -47 -8 9 -13 99 -5 99 5 0 9 -23 9 -52z
m3183 0 c-4 -7 -1 -8 7 -3 10 6 12 4 7 -9 -4 -11 -3 -15 4 -11 6 4 8 13 6 19
-4 9 7 13 31 14 21 1 68 6 106 13 56 9 70 9 77 -2 14 -21 6 -41 -19 -50 -15
-6 -21 -5 -17 1 9 15 -102 12 -163 -4 -64 -17 -80 -29 -78 -59 1 -12 -2 -28
-7 -35 -18 -24 3 -25 44 -3 43 24 48 23 67 -21 11 -27 10 -27 -36 -35 l-47 -8
76 -5 c98 -7 113 -19 106 -83 -2 -27 -1 -43 3 -37 4 6 10 11 14 11 20 -3 24 2
28 33 2 19 0 32 -4 30 -4 -3 -8 0 -8 5 0 6 11 11 24 11 14 0 28 5 32 12 4 6 3
8 -3 5 -12 -7 -49 30 -40 39 3 4 17 4 30 0 29 -7 33 -21 42 -132 9 -95 -6
-132 -77 -202 l-44 -44 -109 -4 c-60 -3 -114 -9 -120 -14 -7 -6 -14 -7 -17 -5
-3 3 -3 -6 -1 -20 5 -24 3 -25 -40 -25 -25 0 -49 -4 -52 -10 -15 -25 -109 4
-201 63 -33 20 -41 31 -42 56 -1 36 -19 74 -33 66 -5 -4 -9 -1 -9 6 0 7 -3 10
-6 7 -10 -10 16 -49 28 -42 7 5 9 2 5 -8 -3 -9 0 -22 6 -29 9 -10 8 -10 -6 1
-10 7 -30 34 -44 58 -22 37 -26 56 -25 110 2 71 9 86 32 72 13 -8 12 -10 -2
-10 -10 0 -18 -4 -18 -10 0 -13 56 -13 82 1 15 8 17 13 9 19 -7 4 10 10 39 14
l52 7 -4 34 c-3 30 -2 32 14 24 10 -5 18 -6 18 -1 0 26 -83 68 -160 82 l-45 8
37 1 c21 0 58 -6 83 -14 25 -9 49 -14 54 -11 5 3 22 -4 37 -15 l29 -21 -29 27
c-23 21 -26 29 -15 36 10 6 16 2 21 -11 4 -11 10 -20 12 -20 3 0 2 7 -1 17 -4
10 -2 14 4 10 7 -4 10 0 8 10 -2 10 -4 21 -4 26 -1 4 -12 0 -25 -8 -19 -13
-25 -13 -28 -3 -6 16 117 54 205 64 51 6 57 9 57 30 0 29 32 37 43 11 4 -10 4
-24 0 -29z m-5438 -50 c-2 -16 1 -27 7 -25 6 1 13 -4 15 -11 3 -7 1 -12 -4
-11 -22 4 -35 -2 -30 -15 3 -8 1 -17 -6 -20 -7 -2 -4 -5 7 -5 12 -1 16 4 13
14 -4 8 -2 17 3 20 6 4 10 0 10 -7 0 -9 3 -9 10 2 9 14 14 7 11 -13 -1 -5 3
-5 9 -2 7 4 1 19 -16 42 -14 19 -24 37 -21 39 3 3 19 -15 36 -40 l32 -45 -28
-7 c-15 -3 -40 -10 -56 -14 l-27 -9 7 42 c5 23 8 64 7 91 -1 45 0 47 12 25 7
-13 11 -36 9 -51z m5075 23 c0 -14 -2 -14 -10 -1 -8 13 -10 13 -10 -1 0 -9 7
-19 15 -23 8 -3 15 -12 15 -21 0 -9 7 -15 16 -13 10 2 19 -2 21 -8 2 -7 -14
-7 -56 1 -32 7 -72 11 -87 8 -28 -4 -28 -4 5 12 18 8 40 15 47 15 9 0 14 11
14 30 0 22 4 28 15 24 8 -4 15 -14 15 -23z m-3083 -19 c15 -21 18 -32 10 -49
-16 -37 -37 -37 -37 0 0 18 -3 42 -6 55 -9 30 8 28 33 -6z m3123 -5 c0 -5 -4
-5 -10 -2 -5 3 -10 14 -10 23 0 15 2 15 10 2 5 -8 10 -19 10 -23z m-220 -20
c0 -30 -5 -45 -18 -54 -18 -11 -18 -9 -3 43 9 30 17 54 19 54 1 0 2 -19 2 -43z
m660 33 c-8 -5 -22 -10 -30 -10 -8 0 -26 -6 -40 -13 -14 -7 -34 -16 -45 -21
-18 -6 -19 -6 -4 9 9 9 38 22 65 30 60 16 73 18 54 5z m497 -12 c-3 -8 -6 -5
-6 6 -1 11 2 17 5 13 3 -3 4 -12 1 -19z m-5216 -5 c13 -16 12 -17 -3 -4 -10 7
-18 15 -18 17 0 8 8 3 21 -13z m-32 -77 c2 -45 -6 -27 -12 29 -4 34 -3 42 3
25 4 -14 8 -38 9 -54z m1490 -29 c22 -37 77 -112 121 -168 72 -89 129 -179
115 -179 -2 0 -13 17 -24 38 -11 20 -56 82 -100 137 -81 99 -172 242 -170 267
0 7 4 4 9 -8 4 -11 26 -50 49 -87z m3341 49 c0 -51 -3 -54 -62 -62 -43 -6 -45
-5 -57 25 -18 41 -10 57 36 69 76 20 83 17 83 -32z m43 27 c-7 -3 -10 -10 -7
-16 2 -7 -1 -21 -9 -31 -11 -16 -13 -13 -13 22 0 35 2 39 20 34 11 -3 15 -7 9
-9z m405 -63 c0 -8 -6 1 -13 20 -7 19 -13 42 -13 50 0 8 6 -1 13 -20 7 -19 13
-42 13 -50z m-5208 42 c0 -15 -2 -15 -10 -2 -13 20 -13 33 0 25 6 -3 10 -14
10 -23z m1170 14 c0 -3 -4 -8 -10 -11 -5 -3 -10 -1 -10 4 0 6 5 11 10 11 6 0
10 -2 10 -4z m1425 -66 c49 -54 49 -54 6 -15 -23 22 -47 49 -53 60 -6 11 -9
18 -6 15 2 -3 26 -30 53 -60z m2235 25 c0 -16 -6 -25 -15 -25 -18 0 -19 4 -3
30 16 26 18 25 18 -5z m-4258 -142 l40 -41 -38 -46 c-21 -25 -42 -46 -46 -46
-4 0 -8 -10 -7 -22 0 -22 1 -22 9 -3 5 11 9 16 9 11 1 -5 12 1 25 13 l24 22
21 -27 c22 -28 27 -44 12 -44 -5 0 -7 -8 -4 -18 2 -11 -6 -32 -22 -50 -26 -31
-19 -56 10 -32 19 16 91 -5 105 -30 13 -25 13 -26 -10 -27 -12 -1 -18 3 -14 9
4 6 -2 8 -17 4 -13 -3 -18 -3 -11 0 6 3 12 11 12 17 0 5 -3 7 -7 4 -3 -4 -14
0 -24 9 -18 16 -39 12 -39 -8 0 -6 6 -6 15 2 13 11 14 10 9 -3 -4 -11 2 -20
20 -28 14 -7 26 -16 26 -20 0 -5 7 -5 17 -2 12 5 14 3 8 -8 -7 -11 -5 -11 10
1 17 14 18 13 12 -2 -5 -14 -1 -18 16 -18 15 0 18 3 9 9 -10 6 -10 11 3 21 14
12 16 12 15 -1 -4 -28 0 -39 16 -39 13 0 14 3 5 14 -9 11 -9 15 1 18 8 3 4 10
-12 18 -17 9 -25 10 -28 1 -6 -19 -19 -12 -17 9 2 35 13 33 61 -9 57 -50 84
-55 32 -6 -21 20 -38 39 -38 44 0 16 65 48 98 49 20 0 30 -3 26 -9 -3 -6 -18
-8 -33 -4 -14 4 -23 3 -19 -1 4 -4 3 -13 -3 -21 -8 -9 -8 -13 -1 -13 6 0 14 5
17 10 3 6 14 10 23 9 13 0 12 -2 -5 -9 -17 -7 -21 -16 -18 -49 3 -45 -13 -58
-47 -40 -16 9 -19 8 -16 -3 3 -7 18 -12 37 -12 17 1 31 -2 31 -7 0 -26 -158 7
-219 46 -75 47 -107 86 -129 160 -28 90 -38 149 -46 260 l-7 90 31 -55 c17
-30 49 -74 72 -97z m658 -37 c18 -39 21 -59 16 -97 -4 -29 -3 -49 3 -49 5 0
12 8 14 18 11 40 6 -87 -5 -140 -9 -43 -16 -57 -26 -53 -7 3 -20 5 -28 5 -8 0
-14 7 -14 15 0 19 -16 20 -27 2 -15 -25 -41 -28 -48 -6 -4 11 -4 23 -1 26 3 4
6 -1 6 -11 0 -11 6 -16 18 -14 9 2 16 9 15 15 -1 5 8 10 20 9 12 -1 26 3 30 9
5 5 5 0 2 -12 -7 -26 0 -29 19 -10 22 22 27 76 10 103 -10 15 -12 24 -5 24 6
0 11 -7 11 -15 0 -8 5 -15 10 -15 15 0 12 28 -4 37 -7 4 -18 18 -25 31 -9 18
-17 21 -39 16 -15 -4 -24 -3 -20 1 4 4 22 8 40 10 34 3 39 15 25 70 -3 11 -6
24 -6 28 -1 4 -10 3 -21 -3 -16 -9 -18 -8 -14 5 3 8 11 12 17 8 7 -4 8 0 2 13
-12 31 -35 127 -34 149 0 11 9 -11 19 -50 10 -38 28 -92 40 -119z m2817 152
c-3 -7 -5 -2 -5 12 0 14 2 19 5 13 2 -7 2 -19 0 -25z m-4809 -39 c20 -39 21
-44 7 -47 -21 -5 -27 1 -29 31 0 14 -4 23 -8 20 -5 -2 -8 0 -8 6 0 5 -3 17 -7
27 -13 35 22 7 45 -37z m4994 17 c4 -6 8 -21 8 -32 0 -19 -7 -23 -46 -26 -42
-3 -49 0 -70 28 -13 17 -24 36 -24 42 0 25 115 15 132 -12z m-5032 -61 c0 -6
-16 -17 -36 -24 -20 -7 -57 -34 -81 -60 -25 -25 -49 -45 -54 -43 -5 1 -9 -3
-9 -9 0 -7 9 -9 24 -5 20 5 23 3 18 -19 -2 -15 0 -25 7 -25 6 0 11 9 11 19 0
11 11 33 24 48 l25 28 21 -22 c29 -32 65 -39 95 -19 20 13 25 25 25 59 1 33 3
38 11 25 19 -33 -3 -81 -48 -106 -32 -17 -40 -27 -36 -42 3 -11 14 -20 24 -20
16 0 18 -5 14 -27 -4 -23 -4 -25 4 -8 8 16 10 16 10 4 1 -9 8 -22 16 -29 9 -7
14 -19 11 -27 -10 -25 4 -13 20 18 8 17 11 29 6 25 -5 -3 -14 20 -21 51 -8 44
-8 58 1 64 18 11 26 2 38 -43 13 -47 7 -80 -21 -120 -15 -21 -17 -28 -7 -28 8
0 19 5 26 12 9 9 12 8 12 -5 0 -9 -4 -17 -10 -17 -5 0 -10 -8 -10 -17 1 -16 2
-16 16 2 8 11 12 30 9 43 -3 12 -1 22 4 22 5 0 12 -29 16 -65 6 -62 5 -68 -21
-103 -45 -60 -105 -125 -150 -160 l-42 -33 -102 21 c-56 12 -129 32 -163 45
l-62 23 0 51 c0 47 14 70 24 40 2 -7 -1 -9 -9 -4 -9 6 -9 3 -1 -13 8 -15 8
-22 -2 -26 -6 -3 -1 -3 12 0 20 5 23 3 17 -12 -4 -10 -4 -15 1 -11 16 17 11
67 -8 81 -18 12 -18 14 1 54 13 26 19 57 18 81 -3 34 -6 38 -25 36 -27 -3 -28
-1 -6 20 14 14 14 18 2 27 -11 7 -9 9 8 5 15 -3 20 -1 16 9 -4 11 1 12 28 2
32 -11 53 -28 44 -36 -2 -2 -15 4 -29 13 -30 20 -31 18 -10 -24 9 -18 14 -44
11 -58 -3 -15 -3 -33 0 -41 7 -16 33 51 33 86 0 14 6 22 18 22 10 0 13 3 7 8
-6 4 -16 19 -22 34 -11 25 -9 33 18 75 30 47 32 35 4 -33 -7 -17 -10 -37 -6
-43 8 -12 10 -9 78 159 37 90 42 96 88 122 l49 26 13 -36 c7 -20 13 -42 13
-47z m1966 8 c4 -25 2 -54 -4 -66 -10 -21 -11 -20 -11 9 -1 17 -8 51 -16 74
-8 23 -12 47 -8 53 10 17 32 -21 39 -70z m2581 -35 c-2 -24 -4 -7 -4 37 0 44
2 63 4 43 2 -21 2 -57 0 -80z m356 67 c23 -40 24 -45 8 -45 -32 0 -49 23 -44
58 3 17 7 32 8 32 2 0 15 -20 28 -45z m-4529 -45 c1 -40 -21 -110 -34 -110 -3
0 -6 18 -8 40 -2 29 3 44 17 56 15 14 17 22 10 48 -12 42 -11 55 3 31 6 -11
12 -40 12 -65z m5650 64 c3 -8 2 -12 -4 -9 -6 3 -10 10 -10 16 0 14 7 11 14
-7z m-1205 -54 l-1 -25 -8 25 c-4 14 -8 32 -9 40 -1 13 0 13 9 0 5 -8 9 -26 9
-40z m-5482 -52 c9 -10 13 -21 9 -25 -4 -4 -12 -1 -17 7 -9 13 -10 13 -6 0 2
-8 11 -15 20 -15 9 0 21 -5 28 -12 8 -8 6 -13 -10 -18 -34 -10 -25 -28 12 -22
23 3 45 -3 76 -21 42 -24 43 -26 21 -34 -26 -9 -41 -1 -21 11 10 6 9 10 -5 15
-9 3 -19 4 -22 1 -3 -3 0 -5 7 -5 7 0 9 -5 6 -10 -4 -6 -12 -8 -18 -4 -7 3 -4
-1 5 -9 10 -8 15 -17 11 -21 -4 -4 1 -4 12 -1 16 6 17 5 5 -4 -20 -15 -30 -14
-30 3 0 7 -7 19 -15 26 -17 14 -21 35 -5 25 6 -3 10 1 10 11 0 13 -3 14 -14 5
-8 -6 -18 -11 -22 -10 -22 4 -23 -2 -4 -21 21 -21 27 -50 10 -50 -15 0 -46 77
-70 172 -24 95 -24 105 -4 58 8 -19 22 -42 31 -52z m1366 67 c-3 -9 -8 -14
-10 -11 -3 3 -2 9 2 15 9 16 15 13 8 -4z m1151 -37 c9 -40 55 -89 105 -111 43
-19 44 -20 22 -29 -26 -9 -91 7 -91 23 0 5 -6 9 -14 9 -22 0 -29 19 -15 38 12
14 10 14 -8 -1 -21 -18 -21 -18 -18 18 1 23 -1 33 -8 26 -5 -5 -9 -22 -9 -36
0 -19 -3 -23 -9 -14 -6 10 -9 6 -9 -13 0 -21 4 -26 17 -21 11 4 14 3 9 -5 -4
-7 -13 -12 -19 -12 -7 0 -18 -9 -25 -20 -7 -12 -17 -18 -22 -15 -6 3 -10 1
-10 -6 0 -7 -2 -10 -5 -7 -3 3 -2 13 1 22 5 14 9 15 15 4 13 -20 12 8 -2 33
-6 11 -12 30 -14 41 -3 11 -7 23 -10 27 -3 3 -3 -10 0 -28 3 -19 3 -48 -1 -64
l-6 -29 -12 23 c-8 17 -23 26 -51 30 -46 7 -45 11 7 14 28 2 39 -3 47 -19 14
-28 4 49 -15 114 -12 41 -12 43 2 25 24 -31 64 -112 64 -130 0 -8 5 -15 10
-15 6 0 10 12 10 27 0 26 52 153 56 136 1 -4 5 -20 8 -35z m1612 33 c-3 -5
-21 -12 -40 -15 -20 -4 -47 -20 -63 -36 -17 -18 -38 -30 -54 -30 -14 0 -36
-11 -49 -25 -13 -14 -26 -23 -28 -20 -11 10 42 55 64 55 13 0 38 13 57 29 36
32 128 66 113 42z m2094 -53 c0 -10 -4 -18 -10 -18 -5 0 -10 15 -10 33 0 24 3
28 10 17 5 -8 10 -23 10 -32z m-2612 -24 c-24 -25 -59 -53 -78 -61 -50 -22
-140 -42 -140 -32 0 5 9 9 20 9 10 0 49 11 87 25 49 18 76 35 102 65 20 22 39
40 44 40 4 0 -11 -21 -35 -46z m1815 8 c7 -9 6 -11 -7 -6 -9 3 -16 16 -15 28
0 14 2 16 6 6 3 -8 10 -21 16 -28z m-4703 -15 c0 -18 -5 -38 -12 -45 -19 -19
-66 -14 -89 9 l-21 21 22 15 c21 15 63 30 88 32 7 1 12 -12 12 -32z m2613 26
c-7 -2 -21 -2 -30 0 -10 3 -4 5 12 5 17 0 24 -2 18 -5z m316 -20 c-9 -11 -10
-14 -1 -9 26 15 10 -17 -25 -53 -36 -36 -40 -38 -83 -32 -44 7 -44 7 -14 14
17 5 53 30 80 57 46 46 73 61 43 23z m-1065 -12 c-2 -3 -12 3 -22 13 -16 17
-16 18 5 5 12 -7 20 -15 17 -18z m681 19 c-27 -12 -43 -12 -25 0 8 5 22 9 30
9 10 0 8 -3 -5 -9z m103 -25 c-3 -3 -9 2 -12 12 -6 14 -5 15 5 6 7 -7 10 -15
7 -18z m-158 5 c-8 -5 -19 -10 -25 -10 -5 0 -3 5 5 10 8 5 20 10 25 10 6 0 3
-5 -5 -10z m2260 -54 c0 -12 -63 38 -68 54 -3 7 12 0 32 -16 20 -16 36 -33 36
-38z m0 42 c0 -6 -6 -5 -15 2 -8 7 -15 14 -15 16 0 2 7 1 15 -2 8 -4 15 -11
15 -16z m-3246 -8 c25 -12 46 -23 46 -25 0 -14 -40 -2 -70 20 -41 30 -37 31
24 5z m451 0 c-4 -6 -1 -17 5 -25 7 -8 10 -20 7 -27 -3 -8 -6 -6 -6 5 -1 11
-12 20 -31 24 -16 3 -30 10 -30 15 0 5 4 7 8 4 4 -2 14 -1 22 5 20 12 33 11
25 -1z m715 -35 c0 -5 -5 -3 -10 5 -5 8 -10 20 -10 25 0 6 5 3 10 -5 5 -8 10
-19 10 -25z m-1235 3 c33 -19 35 -22 18 -31 -10 -5 -27 -17 -38 -26 -16 -13
-16 -11 2 10 17 18 20 28 12 36 -13 13 -39 6 -39 -9 0 -6 8 -7 17 -4 15 6 14
4 -2 -14 l-19 -21 -22 23 -22 23 20 18 c26 22 29 21 73 -5z m4635 -18 c6 -11
8 -20 6 -20 -3 0 -10 9 -16 20 -6 11 -8 20 -6 20 3 0 10 -9 16 -20z m-2894
-17 c-4 -5 -73 -9 -153 -10 -80 -2 -143 1 -139 5 4 4 66 5 137 4 113 -4 130
-2 135 13 5 11 10 13 17 6 6 -6 7 -14 3 -18z m-1532 1 c8 -20 -1 -34 -20 -34
-8 0 -12 5 -9 10 4 6 11 8 16 5 5 -3 6 0 4 8 -4 9 -16 12 -35 9 -17 -2 -27 -8
-24 -13 3 -5 9 -7 13 -5 4 3 7 -4 8 -14 2 -19 1 -19 -20 0 -32 30 -49 24 -27
-10 8 -13 10 -13 10 0 0 10 3 11 10 4 7 -7 8 -19 1 -37 -13 -33 -4 -36 9 -4 7
17 9 18 9 5 1 -10 7 -18 14 -18 9 -1 -48 -30 -58 -30 -2 0 -1 9 2 19 3 11 -3
35 -12 55 -10 20 -16 38 -14 40 4 4 85 23 105 25 7 1 15 -6 18 -15z m1656 7
c0 -15 -161 -50 -212 -46 -31 2 -48 -1 -48 -9 0 -6 -5 -4 -10 4 -6 9 -10 11
-10 3 0 -7 -6 -10 -14 -7 -17 6 -31 -12 -16 -21 5 -3 10 0 10 7 0 9 3 9 10 -2
5 -8 10 -10 10 -5 0 6 27 11 61 13 55 3 104 10 169 27 24 6 24 6 -3 -10 -15
-9 -67 -20 -115 -26 -48 -5 -102 -12 -119 -15 -31 -6 -39 0 -34 29 0 4 -4 7
-9 7 -27 0 1 -69 44 -109 33 -31 34 -14 1 21 -29 31 -30 35 -12 35 8 0 14 -6
14 -12 0 -6 10 -26 23 -43 l24 -32 28 27 c34 32 36 60 6 66 -20 4 -19 4 5 6
22 1 27 -3 27 -23 0 -13 -14 -38 -30 -56 -25 -27 -33 -30 -45 -20 -18 15 -19
9 -3 -26 11 -23 10 -28 -7 -40 -22 -17 -45 -18 -45 -3 0 5 4 7 10 4 5 -3 18
-1 27 4 16 9 15 10 -5 11 -14 0 -39 15 -58 34 -38 38 -47 64 -14 44 11 -7 15
-15 9 -19 -7 -4 -5 -8 4 -12 22 -8 28 3 15 27 -12 20 -13 24 -17 44 -1 4 -6 0
-11 -8 -9 -13 -10 -13 -11 0 -1 8 -1 22 0 30 1 11 -11 16 -43 18 -24 1 -47 -2
-50 -7 -7 -11 30 -25 44 -16 5 3 10 -2 10 -12 0 -15 2 -16 11 -3 7 11 9 3 7
-32 -2 -25 0 -45 3 -43 7 5 59 -75 59 -91 0 -6 -11 -19 -24 -27 -22 -15 -24
-14 -41 21 -10 20 -19 58 -20 84 -2 25 -6 51 -9 57 -9 13 -63 15 -70 2 -7 -11
41 -24 54 -16 6 4 10 3 11 -2 0 -4 2 -16 4 -25 2 -10 -1 -18 -6 -18 -15 0 -10
-22 15 -76 25 -53 21 -74 -13 -74 -14 0 -14 1 -1 10 13 8 13 10 -2 10 -9 0
-19 9 -23 19 -4 13 -24 25 -60 35 -29 9 -58 16 -64 16 -6 0 -11 10 -11 23 0
12 -11 68 -23 124 l-23 101 38 11 c24 8 44 8 55 3 10 -5 39 -13 65 -16 26 -4
50 -11 53 -17 4 -5 18 -9 33 -9 15 0 22 3 15 8 -6 4 42 8 107 10 85 2 134 8
172 22 60 21 78 24 78 11z m-1533 -23 c-3 -8 -6 -5 -6 6 -1 11 2 17 5 13 3 -3
4 -12 1 -19z m-1763 -40 c4 -23 12 -49 19 -57 9 -12 9 -13 -1 -7 -15 9 -42 71
-42 98 0 34 17 10 24 -34z m1746 42 c0 -5 -5 -10 -11 -10 -5 0 -7 5 -4 10 3 6
8 10 11 10 2 0 4 -4 4 -10z m-1780 -21 c0 -14 -17 -10 -23 5 -4 10 -1 13 9 9
7 -3 14 -9 14 -14z m1546 -14 c8 -13 14 -32 11 -42 -4 -15 -5 -15 -6 3 0 11
-10 30 -21 42 -12 12 -16 22 -11 22 6 0 18 -11 27 -25z m434 5 c0 -11 -4 -20
-9 -20 -5 0 -7 9 -4 20 3 11 7 20 9 20 2 0 4 -9 4 -20z m2540 -115 c-5 -70
-12 -130 -14 -133 -6 -5 3 214 10 247 11 55 13 6 4 -114z m-5007 118 c-13 -2
-35 -2 -50 0 -16 2 -5 4 22 4 28 0 40 -2 28 -4z m92 -13 c-3 -5 -12 -10 -18
-10 -7 0 -6 4 3 10 19 12 23 12 15 0z m2110 -1 c5 -7 -5 -8 -32 -3 -51 9 -54
14 -10 14 20 0 39 -5 42 -11z m-2331 -48 c-9 -10 -26 18 -18 30 5 9 9 8 14 -7
4 -10 6 -21 4 -23z m179 25 c29 -7 35 -24 15 -44 -18 -18 -52 -14 -82 9 -30
24 -33 36 -8 42 17 5 25 4 75 -7z m936 -110 l22 -35 -30 10 c-17 6 -31 16 -31
21 0 6 6 5 15 -2 21 -18 19 3 -4 32 -11 13 -22 42 -26 64 l-6 39 19 -47 c11
-26 29 -63 41 -82z m1196 108 c26 -12 27 -14 5 -9 -14 2 -35 5 -47 5 -13 0
-23 5 -23 10 0 14 30 12 65 -6z m-2585 -25 c0 -11 -4 -17 -10 -14 -5 3 -10 15
-10 26 0 11 5 17 10 14 6 -3 10 -15 10 -26z m449 -38 c51 3 68 -10 49 -40 -18
-29 -40 -28 -33 2 6 21 3 22 -45 19 -32 -3 -50 0 -50 7 0 6 -8 11 -18 11 -10
0 -27 7 -38 15 -19 15 -19 15 0 29 17 14 22 12 56 -15 30 -24 45 -30 79 -28z
m2441 -1 c0 -8 -7 -2 -15 14 -8 15 -15 33 -15 40 1 16 29 -36 30 -54z m-545 2
c-6 -7 -35 18 -35 31 0 5 9 2 20 -8 11 -10 18 -20 15 -23z m16 21 c13 -16 12
-17 -3 -4 -17 13 -22 21 -14 21 2 0 10 -8 17 -17z m222 10 c-7 -2 -21 -2 -30
0 -10 3 -4 5 12 5 17 0 24 -2 18 -5z m-2303 -64 c0 -16 -2 -29 -4 -29 -4 0
-56 78 -56 84 0 2 14 -2 30 -10 23 -12 30 -22 30 -45z m-249 -94 l-10 -50 5
47 c3 29 -1 60 -11 83 -22 55 -18 67 6 15 18 -39 19 -52 10 -95z m2574 125 c3
-5 2 -10 -4 -10 -5 0 -13 5 -16 10 -3 6 -2 10 4 10 5 0 13 -4 16 -10z m252
-12 c-3 -8 -6 -5 -6 6 -1 11 2 17 5 13 3 -3 4 -12 1 -19z m-461 -6 c-10 -2
-22 0 -28 6 -6 6 0 7 19 4 21 -5 23 -7 9 -10z m2089 -8 c-17 -15 -22 -24 -12
-20 9 3 17 1 17 -4 0 -11 -11 -13 -34 -4 -14 6 -14 9 6 29 13 13 30 23 38 24
9 0 3 -10 -15 -25z m-1471 -94 c35 -95 59 -240 39 -240 -21 0 -73 73 -73 102
0 7 9 -6 21 -29 32 -65 47 -56 38 21 -10 80 -67 235 -80 215 -11 -18 -11 -73
0 -123 6 -24 6 -35 0 -29 -17 17 -23 112 -9 154 7 22 17 36 21 32 4 -4 23 -51
43 -103z m-2909 70 c13 -26 14 -37 4 -68 -20 -63 -30 -81 -24 -43 3 18 5 45 5
60 0 20 2 23 10 11 8 -13 10 -12 10 3 0 9 -4 17 -9 17 -5 0 -11 11 -13 25 -7
33 -2 32 17 -5z m6347 0 c55 -16 111 -30 124 -30 26 0 244 -54 287 -71 32 -14
33 -17 6 -102 -13 -41 -25 -64 -31 -60 -7 3 -8 1 -4 -5 6 -10 -18 -72 -28 -72
-1 0 -36 11 -76 25 -40 14 -88 25 -107 25 -18 0 -33 5 -33 10 0 6 10 8 24 4
13 -3 27 -1 31 5 3 6 11 9 16 6 5 -4 9 -1 9 4 0 14 -13 14 -27 0 -19 -19 -45
-3 -38 22 5 15 3 20 -6 17 -8 -3 -20 -21 -26 -42 -7 -20 -27 -50 -44 -65 -43
-40 -142 -87 -219 -105 -36 -8 -110 -31 -165 -50 -99 -34 -122 -35 -109 -3 8
21 92 77 115 77 10 0 38 11 62 24 l44 23 39 -23 c42 -26 71 -30 94 -13 12 9
12 10 -3 5 -11 -3 -39 4 -65 17 -91 46 -89 43 -81 103 4 29 10 58 14 63 3 6 3
16 -1 22 -4 8 -9 7 -15 -2 -6 -10 -9 -10 -9 -2 0 6 -18 23 -41 36 -35 21 -38
25 -20 30 12 3 21 1 21 -4 0 -10 59 -49 74 -49 5 0 3 7 -4 15 -7 8 -18 15 -25
15 -7 0 -19 7 -26 16 -9 11 4 8 40 -11 58 -29 75 -23 68 23 -4 18 -1 22 12 17
9 -4 21 -8 28 -9 7 -1 23 -14 36 -28 13 -14 34 -31 45 -37 12 -7 22 -16 22
-22 0 -6 -6 -7 -12 -3 -7 4 -10 3 -5 -1 11 -13 57 -12 57 0 0 6 17 21 38 34
25 15 29 20 12 15 -13 -4 -30 -13 -38 -20 -17 -18 -23 -17 -48 0 -14 10 -20
25 -19 45 1 22 -2 28 -13 23 -11 -4 -14 -1 -9 11 8 21 3 21 -17 2 -12 -12 -20
-13 -40 -4 l-26 12 26 14 c31 16 45 17 24 2 -13 -9 -13 -10 0 -6 8 2 15 10 15
18 0 7 10 19 23 25 18 9 20 13 9 22 -7 6 -28 13 -46 14 -18 1 -35 6 -37 10
-10 16 -30 7 -46 -22 -22 -38 -60 -41 -76 -5 -13 28 -62 36 -62 10 0 -8 5 -15
10 -15 6 0 10 -8 10 -17 0 -14 3 -14 12 -5 10 10 10 15 -2 22 -8 5 -11 12 -8
15 12 12 25 -4 32 -36 4 -23 10 -30 21 -25 9 3 14 2 10 -3 -3 -5 -2 -11 2 -14
5 -2 2 -2 -4 -1 -7 2 -16 -4 -21 -12 -13 -24 -36 -7 -56 41 -30 73 -26 75 137
83 21 1 83 -11 139 -28z m-6137 10 c-3 -5 3 -11 14 -11 12 -1 27 -2 34 -3 6
-1 26 4 44 11 18 7 35 13 38 13 13 0 3 -28 -15 -45 -11 -10 -20 -14 -20 -10 0
5 -5 4 -11 -2 -14 -14 -41 -5 -32 11 3 6 3 8 -2 4 -4 -4 -14 -3 -22 4 -9 7
-17 8 -23 2 -7 -7 1 -20 20 -39 16 -16 30 -24 30 -18 0 6 -6 14 -12 16 -8 3
-7 6 4 6 17 1 35 -35 24 -46 -3 -4 -23 7 -44 24 -26 21 -38 39 -40 62 -2 18 1
31 8 31 6 0 8 -4 5 -10z m169 -67 c-15 -32 -29 -62 -30 -68 0 -5 -2 -18 -2
-28 -2 -13 -9 -17 -24 -15 -29 4 -30 27 -3 51 16 15 17 18 3 13 -29 -9 -29 9
0 47 25 34 61 52 47 25 -4 -7 1 -4 9 6 9 11 16 24 16 30 0 5 3 6 6 3 4 -3 -6
-32 -22 -64z m2230 55 c5 -10 7 -10 12 0 3 6 13 12 21 12 14 0 14 -3 -1 -19
-15 -16 -21 -18 -37 -8 -20 12 -25 27 -10 27 5 0 12 -6 15 -12z m3661 0 c5 4
5 1 0 -7 -6 -10 -2 -12 16 -6 23 7 23 7 4 -8 -11 -8 -23 -13 -27 -11 -4 3 -5
-3 -1 -13 3 -10 3 -15 -2 -11 -4 4 -20 -1 -34 -11 -42 -29 -55 -35 -47 -23 3
6 1 14 -5 17 -6 5 1 14 19 25 17 10 33 28 37 40 5 16 10 18 19 11 7 -6 17 -7
21 -3z m-4469 -89 c33 -20 34 -23 29 -67 -4 -26 -8 -60 -10 -77 -1 -16 -3 -33
-4 -37 0 -3 -16 -9 -33 -13 -18 -4 -41 -9 -50 -11 -10 -3 -18 -1 -18 5 0 6 15
11 33 11 17 0 37 4 44 8 7 4 16 40 21 80 l8 73 -45 34 c-33 24 -48 30 -54 22
-6 -8 -7 -6 -3 6 3 9 1 17 -4 17 -6 0 -10 9 -10 20 0 18 5 15 31 -14 17 -19
46 -45 65 -57z m-1561 60 c11 -17 -1 -21 -15 -4 -8 9 -8 15 -2 15 6 0 14 -5
17 -11z m3012 -176 c-2 -37 -3 -9 -3 62 0 72 1 102 3 68 2 -34 2 -93 0 -130z
m1088 175 c14 -6 25 -18 24 -27 -1 -25 -13 -46 -26 -47 -29 -2 -34 -4 -28 -14
3 -5 12 -7 20 -4 8 4 18 -1 21 -10 10 -26 -3 -30 -30 -13 -36 24 -108 47 -103
34 2 -6 15 -14 28 -18 43 -11 97 -40 103 -54 3 -8 -12 -3 -37 11 -23 13 -59
29 -79 34 -44 12 -46 20 -15 55 19 22 26 25 47 16 l25 -10 -27 0 c-31 -1 -45
-16 -22 -25 25 -10 49 -7 82 10 38 18 43 37 8 28 -13 -3 -27 -1 -31 6 -4 6
-16 8 -28 5 -20 -6 -20 -5 3 14 29 24 31 24 65 9z m-1709 -34 c-20 -19 -41
-32 -46 -29 -6 3 -10 1 -10 -4 0 -6 -9 -11 -21 -11 -12 0 -17 -4 -13 -11 10
-16 54 -2 96 32 42 33 88 54 88 39 0 -6 -6 -10 -13 -10 -19 0 -58 -35 -50 -44
11 -11 -20 -26 -41 -20 -12 4 -16 2 -12 -5 4 -6 4 -11 -1 -12 -4 0 -18 -2 -30
-5 -12 -2 -32 5 -44 15 -20 16 -21 20 -8 33 8 8 20 13 28 10 8 -3 11 0 7 7 -9
14 7 14 21 0 7 -7 17 -2 32 20 13 17 29 31 38 31 11 0 4 -12 -21 -36z m-2500
-33 l12 -30 -24 16 c-23 15 -35 41 -12 27 7 -4 8 -3 4 5 -4 6 -11 9 -16 6 -5
-3 -14 4 -20 15 -11 21 -10 21 17 7 15 -8 33 -29 39 -46z m166 37 c-7 -7 -12
-8 -12 -2 0 14 12 26 19 19 2 -3 -1 -11 -7 -17z m2295 0 c-3 -8 -6 -5 -6 6 -1
11 2 17 5 13 3 -3 4 -12 1 -19z m3471 -10 c14 -37 13 -39 -16 -31 -24 6 -30
39 -9 46 6 2 -2 4 -19 5 l-30 1 24 -50 c15 -30 37 -56 54 -65 32 -17 37 -28 8
-19 -11 4 -20 2 -20 -4 0 -6 11 -11 24 -11 14 0 28 -5 31 -11 15 -23 -7 -21
-59 4 -44 22 -60 37 -85 81 -41 70 -35 86 33 86 49 0 52 -2 64 -32z m-5953
-68 c-3 -4 7 -6 20 -4 14 1 23 -2 19 -7 -3 -5 -16 -9 -29 -9 -16 0 -25 7 -29
24 -7 30 -48 57 -67 46 -7 -5 -10 -12 -6 -17 5 -4 13 -1 18 7 8 12 9 10 4 -6
-7 -28 5 -61 16 -43 4 7 3 19 -3 26 -7 9 -7 13 1 13 6 0 16 -12 22 -27 14 -37
-4 -53 -32 -27 -35 32 -42 53 -28 86 l12 29 43 -42 c24 -23 41 -45 39 -49z
m2714 18 c15 -35 41 -100 57 -146 28 -82 29 -84 10 -98 -23 -16 -46 -18 -46
-4 0 6 11 10 25 10 26 0 32 15 14 40 -8 11 -9 9 -3 -10 7 -29 2 -26 -16 9 -6
13 -7 21 -2 17 6 -3 13 -2 17 4 3 5 2 10 -2 10 -5 0 -10 10 -10 22 -1 13 -8
27 -15 33 -8 5 -12 18 -10 28 2 10 -3 17 -11 17 -9 0 -13 9 -12 25 2 14 -1 23
-6 20 -5 -4 -6 1 -3 9 3 9 2 16 -4 16 -5 0 -12 14 -14 30 -3 17 -3 30 -1 30 2
0 16 -28 32 -62z m-76 11 c27 -68 0 -111 -80 -130 -111 -25 -433 -11 -433 20
0 4 -9 16 -19 28 l-19 20 66 6 c38 3 70 11 76 19 15 18 62 38 89 38 13 -1 5
-7 -23 -16 -25 -9 -50 -22 -56 -30 -6 -8 -26 -16 -45 -20 -83 -13 -82 -13 -63
-31 9 -9 31 -17 50 -17 19 -1 34 -5 34 -10 0 -5 28 -6 63 -3 37 3 52 2 37 -3
-21 -7 -17 -8 20 -8 32 -1 39 2 25 7 -12 5 16 7 65 5 99 -4 155 7 183 34 25
25 30 69 11 96 -16 23 -18 36 -6 36 5 0 16 -18 25 -41z m2572 -92 c-17 -142
-59 -271 -88 -273 -12 -2 -13 -1 -2 3 18 5 75 179 73 225 -2 60 18 185 28 175
3 -3 -2 -61 -11 -130z m-5131 108 c38 -16 47 -39 20 -49 -30 -12 -41 -6 -51
29 -6 19 -10 35 -8 35 1 0 19 -7 39 -15z m1533 -7 c-3 -8 -6 -5 -6 6 -1 11 2
17 5 13 3 -3 4 -12 1 -19z m993 1 c0 -6 -4 -7 -10 -4 -5 3 -10 11 -10 16 0 6
5 7 10 4 6 -3 10 -11 10 -16z m865 11 c4 -6 -2 -9 -14 -7 -29 4 -39 17 -13 17
11 0 24 -5 27 -10z m275 -5 c0 -24 -49 -96 -94 -139 -58 -55 -171 -106 -233
-105 l-48 2 55 7 c63 8 162 55 215 101 67 59 127 168 63 113 -21 -17 -21 -16
1 9 27 30 41 34 41 12z m427 -1 c-3 -3 -12 -4 -19 -1 -8 3 -5 6 6 6 11 1 17
-2 13 -5z m1150 -16 c-3 -8 -6 -5 -6 6 -1 11 2 17 5 13 3 -3 4 -12 1 -19z
m-5472 -23 c0 -25 -12 -51 -45 -96 -51 -70 -201 -215 -251 -242 l-34 -18 30
23 c57 44 111 94 170 158 94 101 119 139 117 177 -2 18 1 33 5 33 4 0 8 -16 8
-35z m3689 2 c-5 -15 -3 -19 10 -14 8 3 18 1 22 -4 4 -7 -3 -9 -17 -7 -16 2
-24 9 -23 20 1 10 -2 16 -6 13 -4 -3 -13 1 -19 9 -9 11 -6 12 14 8 20 -3 24
-9 19 -25z m2535 17 c15 -11 19 -20 13 -26 -12 -12 -75 19 -67 32 9 14 27 12
54 -6z m-3485 -33 c-3 -3 -9 1 -14 9 -7 11 -10 12 -10 2 0 -7 -4 -10 -10 -7
-6 4 -5 11 3 20 10 12 14 11 24 -2 7 -9 10 -19 7 -22z m916 12 c16 -21 33 -29
68 -34 l47 -6 -46 -1 c-39 -2 -49 2 -79 33 -19 19 -29 35 -23 35 6 0 21 -12
33 -27z m1240 -45 l0 -72 -22 22 c-21 21 -21 22 -5 57 9 20 17 42 17 50 0 8 2
15 5 15 3 0 5 -32 5 -72z m1470 57 c7 -9 10 -18 7 -22 -8 -7 -37 15 -37 28 0
14 16 11 30 -6z m-6040 -5 c0 -5 -2 -10 -4 -10 -3 0 -8 5 -11 10 -3 6 -1 10 4
10 6 0 11 -4 11 -10z m122 -12 c-7 -7 -12 -8 -12 -2 0 14 12 26 19 19 2 -3 -1
-11 -7 -17z m521 -100 c6 -46 5 -49 -35 -88 -23 -22 -47 -40 -53 -40 -5 0 4
14 22 30 l32 29 -27 -3 c-15 -1 -34 2 -42 8 -13 9 -13 9 -2 -6 11 -14 10 -17
-10 -20 -26 -4 -38 -38 -13 -38 9 0 14 4 11 9 -3 5 5 16 19 25 35 23 42 20 17
-7 -12 -13 -19 -26 -16 -30 10 -10 -78 -67 -105 -67 -38 0 -46 9 -59 62 -17
66 -16 68 21 68 22 0 46 12 76 35 34 27 47 33 54 23 6 -9 7 -7 3 5 -4 13 8 34
41 71 l48 53 6 -36 c4 -20 9 -57 12 -83z m1794 90 c-3 -7 -5 -2 -5 12 0 14 2
19 5 13 2 -7 2 -19 0 -25z m76 6 c-3 -8 0 -14 6 -14 6 0 8 -6 5 -14 -3 -8 -1
-17 5 -21 6 -3 11 -11 11 -16 0 -19 -20 3 -35 38 -19 44 -19 54 -1 47 8 -3 12
-12 9 -20z m2481 -18 c-3 -21 -8 -35 -11 -32 -2 2 -1 20 3 40 3 21 8 35 11 32
2 -2 1 -20 -3 -40z m-1494 30 c0 -2 -8 -10 -17 -17 -16 -13 -17 -12 -4 4 13
16 21 21 21 13z m2183 -32 l17 -35 -32 4 c-20 2 -32 9 -30 17 5 23 -18 41 -39
29 -12 -6 -19 -6 -19 0 0 13 19 19 55 20 25 0 33 -6 48 -35z m-1811 -91 c15
-26 23 -31 29 -21 6 9 9 7 9 -9 0 -13 -6 -23 -14 -23 -7 0 -16 -9 -19 -20 -3
-11 -1 -20 4 -20 5 0 9 8 10 18 0 10 3 12 6 5 6 -17 43 -17 43 0 0 7 -4 17 -8
23 -5 5 -1 16 10 27 10 9 18 13 18 7 0 -5 7 -6 17 -3 10 4 14 2 10 -4 -9 -14
23 -11 52 6 21 11 25 11 33 -3 16 -28 27 -18 23 20 -3 22 -1 33 5 29 5 -3 10
-11 10 -16 0 -6 14 -44 31 -84 31 -76 99 -165 125 -165 9 0 12 -5 9 -10 -4 -7
-13 -7 -26 0 -10 6 -19 8 -19 6 0 -13 42 -27 53 -17 9 7 13 5 13 -8 0 -12 -5
-17 -15 -13 -8 3 -12 1 -8 -4 3 -6 -3 -11 -14 -11 -10 -1 -19 3 -19 8 0 6 5 7
12 3 7 -5 8 -3 4 5 -5 7 -13 10 -20 8 -8 -3 -12 6 -11 27 0 21 -4 30 -14 28
-7 -1 -19 3 -27 9 -8 6 -14 7 -14 2 0 -5 -10 -10 -22 -10 -16 -2 -19 0 -9 6
22 14 1 34 -29 27 -35 -7 -49 10 -39 49 4 21 7 24 8 10 2 -19 3 -18 11 3 5 12
14 22 20 22 16 0 12 -15 -10 -35 -28 -25 -25 -32 13 -37 34 -4 66 15 47 27 -6
3 -10 1 -10 -5 0 -6 -4 -8 -10 -5 -5 3 -10 13 -10 21 0 8 5 12 10 9 12 -8 13
5 0 25 -7 11 -26 14 -82 11 -40 -1 -75 -4 -79 -7 -4 -2 -10 2 -13 8 -3 7 -3 3
0 -9 3 -14 1 -23 -6 -23 -16 0 -40 -26 -40 -42 0 -7 9 -24 20 -38 16 -20 20
-22 20 -7 0 9 -4 17 -10 17 -5 0 -10 5 -10 10 0 6 8 5 20 -2 11 -7 20 -24 20
-38 0 -17 8 -29 23 -35 13 -6 22 -18 21 -32 0 -15 4 -19 15 -16 9 3 6 -2 -6
-11 -28 -21 -29 -37 -5 -65 15 -19 43 -31 80 -33 6 -1 12 -6 12 -12 0 -6 4 -6
11 1 8 8 9 22 3 40 -4 15 -8 33 -8 38 -1 6 -11 17 -24 26 l-23 16 29 1 c26 0
29 -3 30 -31 1 -18 5 -54 10 -82 l8 -50 11 35 11 35 1 -32 c1 -40 21 -44 22
-5 1 15 6 -4 13 -43 l11 -70 -25 -6 c-23 -6 -22 -7 8 -8 17 0 32 3 32 7 0 5
17 7 37 5 25 -2 55 6 91 25 l53 27 -21 17 c-18 14 -19 18 -6 18 9 0 16 -6 16
-12 0 -10 2 -10 9 0 6 10 10 9 14 -7 4 -17 -4 -26 -37 -46 -60 -35 -120 -44
-280 -42 l-138 2 -33 40 c-19 22 -32 41 -30 44 3 2 14 -7 25 -20 17 -21 19
-21 13 -4 -6 18 -5 19 13 5 17 -12 17 -12 6 0 -7 8 -18 15 -25 15 -7 1 -11 7
-9 13 2 10 -3 10 -17 3 -21 -11 -41 10 -91 94 l-23 40 28 -25 c26 -23 27 -23
16 -3 -13 25 -14 33 -3 32 14 -2 52 14 52 22 0 5 -7 5 -17 2 -10 -4 -14 -2
-10 4 9 14 -18 36 -35 30 -8 -4 -7 -6 4 -6 9 -1 20 -6 24 -13 5 -8 1 -9 -12
-5 -18 7 -18 6 1 -9 19 -16 19 -16 -5 -9 -30 9 -22 2 -54 49 -14 21 -26 49
-26 62 0 22 1 22 29 -7 16 -16 36 -29 45 -29 8 0 20 -9 26 -20 13 -23 27 -26
27 -5 0 8 -4 12 -9 9 -4 -3 -8 2 -8 11 0 10 5 13 12 9 7 -4 8 -3 4 5 -4 6 -11
9 -16 6 -20 -12 -60 109 -60 183 0 40 1 42 20 32 14 -8 20 -8 20 0 0 6 -10 15
-22 20 -13 5 -18 9 -11 9 7 1 10 16 7 44 l-4 42 10 -39 c6 -22 20 -55 32 -73z
m1734 62 c-17 -31 -36 -39 -36 -14 0 6 4 8 8 5 4 -2 14 5 22 17 12 20 12 21
-3 8 -10 -7 -17 -10 -17 -7 0 4 -7 0 -16 -9 -12 -11 -13 -19 -5 -29 6 -7 13
-33 15 -57 2 -24 1 -33 -1 -19 -3 13 -11 33 -19 44 -12 17 -14 18 -14 4 0 -9
5 -20 10 -23 6 -3 10 -19 10 -35 0 -16 -4 -32 -10 -35 -6 -4 -10 6 -10 23 0
16 -5 43 -11 60 -9 28 -7 35 16 66 15 20 30 34 34 32 4 -3 13 -1 21 4 23 14
25 1 6 -35z m-3206 31 c0 -3 -4 -8 -10 -11 -5 -3 -10 -1 -10 4 0 6 5 11 10 11
6 0 10 -2 10 -4z m1548 -41 c3 -25 2 -27 -12 -16 -19 16 -22 55 -3 49 6 -3 14
-17 15 -33z m-1532 10 c-26 -19 -42 -19 -26 0 7 8 20 15 29 15 13 -1 13 -3 -3
-15z m97 -36 c10 -28 17 -63 16 -78 0 -15 -7 -1 -15 34 -8 33 -19 64 -24 69
-12 12 -13 26 -2 26 5 0 16 -23 25 -51z m-463 31 c13 -9 13 -10 0 -10 -8 0
-22 5 -30 10 -13 9 -13 10 0 10 8 0 22 -5 30 -10z m1953 -1 c41 -21 59 -42 45
-51 -36 -22 -95 13 -81 48 6 17 8 17 36 3z m-2129 -71 c18 -18 18 -18 -3 -18
-14 0 -27 13 -42 43 l-21 42 23 -25 c13 -14 32 -33 43 -42z m3103 40 c-3 -8
-6 -5 -6 6 -1 11 2 17 5 13 3 -3 4 -12 1 -19z m520 8 c1 0 4 -13 8 -27 l6 -25
-76 7 c-71 7 -125 28 -125 48 0 7 178 4 187 -3z m201 6 c12 -1 22 -7 22 -13 0
-5 -5 -7 -11 -3 -7 4 -9 -2 -7 -17 3 -23 0 -24 -54 -27 -49 -3 -58 0 -58 14 0
10 7 25 15 34 13 14 27 16 93 12z m107 -32 c3 -5 2 -10 -4 -10 -5 0 -13 5 -16
10 -3 6 -12 10 -18 9 -9 0 -9 -2 1 -6 6 -2 12 -9 12 -15 0 -6 -7 -8 -15 -4 -8
3 -15 1 -15 -5 0 -6 -6 -7 -12 -3 -7 4 -10 3 -5 -1 10 -12 47 -14 47 -3 0 4 4
8 10 8 5 0 7 -7 4 -15 -4 -8 -1 -15 5 -15 7 0 16 10 21 23 8 20 9 19 9 -10 1
-38 4 -38 -60 -17 -36 12 -49 21 -45 31 3 8 6 17 6 19 0 3 5 2 11 -2 9 -5 10
1 5 20 l-7 27 30 -16 c16 -8 33 -19 36 -25z m-3255 -25 c0 -17 2 -18 10 -5 8
11 9 8 4 -13 -4 -17 -1 -33 7 -44 12 -14 12 -16 0 -11 -15 4 -22 23 -34 88 -5
25 -4 31 3 20 5 -8 10 -24 10 -35z m1799 9 c-42 -102 -50 -117 -62 -105 -9 10
-8 16 7 27 12 8 15 14 7 14 -7 0 -3 9 10 20 13 10 19 19 12 20 -6 0 -26 -12
-43 -26 -24 -21 -28 -29 -18 -36 9 -6 6 -7 -9 -3 -12 3 -24 1 -28 -5 -4 -6 4
-10 18 -10 17 0 24 -5 23 -17 0 -10 -4 -20 -7 -23 -4 -3 -2 -16 3 -30 7 -20
11 -22 18 -10 6 9 5 19 0 24 -9 9 33 46 53 46 18 0 4 -18 -18 -24 -14 -4 -25
-11 -25 -16 0 -13 17 -13 25 1 4 6 14 8 22 5 8 -3 11 -1 8 4 -7 12 54 13 73 2
8 -6 10 -16 4 -31 l-8 -22 -25 20 c-25 19 -51 22 -65 8 -4 -4 2 -7 14 -7 33 0
85 -51 85 -83 0 -15 4 -27 9 -27 5 0 6 5 2 11 -4 8 0 9 15 4 12 -4 21 -2 21 4
0 7 8 7 26 1 19 -8 29 -6 40 5 18 17 17 17 37 9 13 -5 13 -10 4 -32 -28 -63
-51 -91 -71 -87 -32 6 -33 7 -7 14 13 3 29 15 35 26 6 11 16 23 21 27 12 9 2
10 -19 2 -9 -3 -13 -11 -9 -18 4 -6 -4 -3 -19 6 -29 19 -47 12 -20 -8 9 -7 14
-15 11 -19 -10 -10 -72 20 -94 45 -11 13 -14 20 -7 16 6 -4 12 -3 12 2 0 6 -7
12 -15 16 -8 3 -14 2 -14 -2 4 -24 -4 -23 -15 3 -8 18 -10 36 -5 47 6 11 4 18
-8 22 -9 4 -18 4 -21 1 -3 -3 0 -5 7 -5 7 0 9 -4 6 -10 -7 -12 -26 -14 -24 -2
3 19 -2 29 -16 29 -10 0 -14 -7 -10 -21 3 -12 2 -15 -1 -7 -5 10 -8 11 -14 1
-6 -9 -15 -1 -33 26 -46 73 -45 75 33 138 38 31 70 62 70 68 0 6 2 9 5 6 3 -3
0 -18 -6 -34z m193 -8 c45 -45 78 -138 66 -183 -5 -18 -14 -33 -20 -33 -7 0
-34 23 -60 51 -27 28 -63 57 -81 64 -29 13 -30 14 -7 15 17 0 42 -18 82 -60
62 -64 71 -70 61 -43 -4 9 -2 14 3 10 5 -3 9 7 8 21 -2 47 -4 53 -13 47 -6 -3
-15 5 -22 17 -13 25 -28 38 -44 38 -5 0 0 -7 12 -15 12 -8 24 -28 28 -45 4
-16 11 -32 16 -35 5 -4 9 -11 9 -18 0 -6 -24 12 -52 40 -60 58 -93 70 -134 48
-47 -24 -52 -17 -7 10 l41 25 59 -30 c55 -28 56 -28 30 -5 -15 14 -24 25 -18
25 6 0 8 6 5 13 -3 8 -18 13 -34 12 l-30 -2 33 33 c17 18 33 33 34 33 0 1 16
-14 35 -33z m-2351 3 l147 0 -24 -49 c-13 -28 -25 -50 -27 -50 -12 1 -289 59
-291 62 -1 1 -7 15 -13 29 l-11 27 36 -10 c20 -5 103 -9 183 -9z m199 7 c0 -2
-7 -6 -15 -10 -8 -3 -15 -1 -15 4 0 6 7 10 15 10 8 0 15 -2 15 -4z m427 -43
c15 -21 31 -41 35 -44 5 -3 -8 -13 -27 -22 l-35 -17 5 34 c4 23 1 37 -10 46
-11 9 -15 9 -15 1 0 -7 -4 -9 -10 -6 -5 3 -10 1 -10 -4 0 -6 6 -11 13 -11 16
0 21 -47 5 -56 -8 -5 -9 -2 -5 10 5 11 3 15 -5 10 -7 -5 -9 -2 -5 8 4 12 -1
15 -19 14 -13 0 -24 -3 -24 -5 0 -5 54 -46 61 -46 4 0 11 -3 15 -7 4 -5 -2 -8
-13 -8 -11 0 -30 11 -42 24 -14 14 -29 22 -38 19 -13 -5 -12 -1 3 23 29 47 56
74 75 74 10 0 31 -17 46 -37z m67 11 c9 -23 7 -54 -2 -54 -5 0 -17 9 -27 20
-15 16 -15 22 -5 35 16 19 26 19 34 -1z m73 -16 c-3 -7 -5 -2 -5 12 0 14 2 19
5 13 2 -7 2 -19 0 -25z m1984 -40 c-12 -35 -26 -70 -32 -78 -9 -13 -10 -13 -5
0 2 8 15 45 27 82 13 37 25 66 27 63 2 -2 -5 -32 -17 -67z m-2490 -35 c8 -10
-5 -1 -28 19 -23 20 -51 41 -62 48 -12 6 -21 15 -21 21 0 12 87 -58 111 -88z
m209 29 c0 -29 -14 -20 -25 15 -5 18 -3 22 9 17 9 -3 16 -18 16 -32z m287 -9
c-3 -10 -5 -4 -5 12 0 17 2 24 5 18 2 -7 2 -21 0 -30z m243 4 c0 -7 -26 -29
-57 -50 l-58 -37 40 34 c22 19 47 41 55 49 19 19 20 20 20 4z m-3106 -16 c16
-18 15 -19 -28 -30 -64 -16 -108 -13 -133 8 -13 11 -23 22 -23 25 0 3 30 7 68
9 37 2 74 4 83 5 9 1 24 -6 33 -17z m2821 -22 c9 -17 15 -32 13 -32 -2 -1 -18
-13 -37 -26 -33 -23 -35 -23 -48 -5 -34 45 -34 51 0 73 43 28 54 26 72 -10z
m-351 -24 c5 -29 4 -36 -3 -25 -6 8 -11 28 -11 44 0 39 6 31 14 -19z m1736 35
c0 -5 -4 -10 -10 -10 -5 0 -10 5 -10 10 0 6 5 10 10 10 6 0 10 -4 10 -10z
m300 -31 c0 -6 -4 -7 -10 -4 -5 3 -10 11 -10 16 0 6 5 7 10 4 6 -3 10 -11 10
-16z m-68 -47 c19 -22 -6 -37 -44 -26 -33 10 -45 31 -34 60 5 13 10 13 37 -3
17 -10 35 -24 41 -31z m-4396 24 c19 -20 8 -25 -73 -35 -58 -8 -70 -6 -81 8
-12 14 -6 17 53 23 37 3 69 9 73 12 8 9 12 8 28 -8z m3074 2 c-1 -7 -9 -38
-20 -68 -11 -30 -20 -73 -20 -95 -1 -34 -3 -37 -10 -18 -7 16 -2 44 16 99 13
41 22 80 19 85 -4 5 -1 9 4 9 6 0 11 -6 11 -12z m-680 -18 c6 -11 8 -20 6 -20
-3 0 -10 9 -16 20 -6 11 -8 20 -6 20 3 0 10 -9 16 -20z m1600 10 c0 -5 -5 -10
-11 -10 -5 0 -7 5 -4 10 3 6 8 10 11 10 2 0 4 -4 4 -10z m-35 -10 c3 -6 -1 -7
-9 -4 -18 7 -21 14 -7 14 6 0 13 -4 16 -10z m-1868 -68 c35 -25 61 -47 59 -50
-4 -3 -102 63 -151 103 -43 34 29 -7 92 -53z m719 57 c4 -7 0 -9 -14 -5 -11 4
-23 2 -26 -3 -4 -6 5 -9 21 -7 37 3 53 -10 53 -45 0 -31 -1 -32 -24 -23 -9 3
-13 11 -10 16 4 6 10 5 16 -3 6 -10 8 -7 6 10 -2 14 -12 27 -26 32 -21 8 -23
7 -16 -14 6 -21 6 -21 -18 3 -21 22 -23 27 -9 38 18 15 38 16 47 1z m117 -18
c-13 -21 -22 -27 -37 -22 -21 5 -21 5 -1 9 11 3 26 13 33 23 20 29 23 23 5
-10z m-480 -44 c21 -64 22 -85 2 -39 -8 18 -19 31 -24 28 -9 -6 -22 44 -14 56
10 17 19 6 36 -45z m-3129 14 c-10 -17 -22 -27 -27 -24 -4 3 2 16 14 29 30 32
34 30 13 -5z m5411 2 c-34 -53 -45 -67 -45 -60 0 10 51 87 57 87 3 0 -3 -12
-12 -27z m-1738 1 c-3 -4 -1 -16 5 -28 10 -20 9 -20 -7 -4 -15 14 -14 38 2 38
4 0 3 -3 0 -6z m-3732 -139 c-19 -50 -34 -84 -35 -77 0 16 61 175 65 170 2 -2
-11 -44 -30 -93z m3172 63 c-3 -7 -5 -2 -5 12 0 14 2 19 5 13 2 -7 2 -19 0
-25z m393 20 c0 -4 -7 -8 -15 -8 -8 0 -15 -5 -15 -11 0 -5 5 -7 10 -4 12 7 12
3 4 -19 -9 -24 -21 -19 -28 11 -7 27 2 40 29 40 8 0 15 -4 15 -9z m30 -8 c0
-5 -2 -10 -4 -10 -3 0 -8 5 -11 10 -3 6 -1 10 4 10 6 0 11 -4 11 -10z m1115 0
c3 -5 2 -10 -4 -10 -5 0 -13 5 -16 10 -3 6 -2 10 4 10 5 0 13 -4 16 -10z m325
-20 c14 -11 30 -20 37 -20 6 0 19 -10 27 -22 11 -15 16 -18 16 -8 0 13 1 13
10 0 8 -12 14 -10 41 15 18 17 29 24 25 18 -9 -16 -115 -117 -127 -121 -5 -2
-9 1 -9 6 0 6 9 14 20 17 11 4 18 10 15 15 -3 5 4 11 15 15 11 3 20 10 20 15
0 6 -12 5 -27 -1 -22 -8 -25 -8 -16 2 9 9 9 14 0 23 -25 24 -68 47 -77 41 -6
-3 -10 1 -10 9 0 21 10 20 40 -4z m190 -20 c0 -11 -4 -20 -9 -20 -5 0 -7 9 -4
20 3 11 7 20 9 20 2 0 4 -9 4 -20z m-2009 -73 l21 -22 -6 25 c-3 14 4 5 15
-18 12 -25 22 -70 24 -103 3 -75 -4 -70 -15 11 -7 52 -15 70 -43 99 -19 20
-37 50 -40 66 l-6 30 15 -33 c8 -19 24 -43 35 -55z m8 38 c0 -5 -4 -3 -9 5 -5
8 -9 22 -9 30 0 16 17 -16 18 -35z m37 5 c1 -6 2 -14 3 -20 0 -5 9 -10 18 -10
15 0 14 2 -3 16 -19 15 -19 16 1 8 11 -4 46 -14 78 -23 54 -15 57 -17 57 -47
0 -18 3 -39 6 -48 9 -24 -19 -20 -88 11 -40 18 -57 31 -54 40 3 8 2 12 -3 9
-7 -5 -41 72 -41 93 0 8 25 -19 26 -29z m2198 -37 c-15 -26 -29 -43 -31 -37
-5 14 51 106 55 93 2 -5 -9 -30 -24 -56z m-234 16 c0 -5 -9 -9 -19 -9 -11 0
-22 4 -25 9 -3 5 6 9 19 9 14 0 25 -4 25 -9z m-1671 -39 c0 -10 -3 -8 -9 5
-12 27 -12 43 0 25 5 -8 9 -22 9 -30z m1646 8 c14 -3 10 -7 -17 -12 -46 -10
-69 1 -43 20 11 8 23 10 29 5 6 -5 20 -11 31 -13z m488 -3 c-3 -9 -8 -14 -10
-11 -3 3 -2 9 2 15 9 16 15 13 8 -4z m-4267 -48 c18 -33 11 -49 -19 -42 -12 3
-32 7 -44 8 l-23 1 26 27 c24 25 24 28 7 32 -10 3 -5 4 10 4 21 -1 33 -9 43
-30z m3090 -3 c-3 -7 0 -16 6 -20 7 -5 8 -2 3 7 -4 8 11 -4 34 -26 l42 -40
138 -3 139 -3 -10 -40 -10 -39 -57 6 c-88 9 -120 20 -202 68 -84 50 -101 66
-105 102 -2 22 0 24 12 13 8 -7 13 -18 10 -25z m424 26 c0 -5 -4 -10 -10 -10
-5 0 -10 5 -10 10 0 6 5 10 10 10 6 0 10 -4 10 -10z m-3450 -4 c0 -2 -11 -6
-25 -8 -13 -3 -22 -1 -19 3 5 9 44 13 44 5z m2077 -28 c-3 -7 -5 -2 -5 12 0
14 2 19 5 13 2 -7 2 -19 0 -25z m1441 17 c-2 -3 -20 -7 -39 -10 l-34 -5 35 14
c32 12 50 13 38 1z m-939 -40 c16 -20 16 -20 -6 -1 -13 11 -23 26 -22 35 0 14
1 14 6 1 3 -8 13 -24 22 -35z m-492 -47 c-2 -13 -4 -5 -4 17 -1 22 1 32 4 23
2 -10 2 -28 0 -40z m-2116 20 c-4 -12 -14 -24 -22 -26 -9 -2 -10 -1 -3 5 6 4
13 16 17 26 3 9 9 17 11 17 3 0 2 -10 -3 -22z m-36 -8 c-3 -5 -21 -9 -38 -9
l-32 2 35 7 c19 4 36 8 38 9 2 0 0 -3 -3 -9z m1885 -45 c0 -17 5 -36 12 -43 6
-6 9 -14 6 -18 -11 -10 -31 38 -34 81 -3 28 -1 36 6 25 5 -8 10 -29 10 -45z
m2106 9 c-4 -20 -10 -34 -13 -30 -3 3 -2 21 1 42 4 20 10 34 13 30 3 -3 2 -21
-1 -42z m-4063 9 c-7 -2 -19 -2 -25 0 -7 3 -2 5 12 5 14 0 19 -2 13 -5z m91
-11 c2 -4 -11 -6 -30 -4 -19 2 -34 6 -34 8 0 8 59 4 64 -4z m-44 -22 c0 -5 -5
-10 -11 -10 -5 0 -7 5 -4 10 3 6 8 10 11 10 2 0 4 -4 4 -10z m2167 -12 c-3 -8
-6 -5 -6 6 -1 11 2 17 5 13 3 -3 4 -12 1 -19z m-2214 5 c-7 -2 -19 -2 -25 0
-7 3 -2 5 12 5 14 0 19 -2 13 -5z m2074 -74 c29 -11 64 -19 78 -19 24 0 25 -2
25 -69 l0 -70 -37 15 c-21 8 -66 29 -100 46 -53 27 -63 36 -63 57 0 48 11 73
29 65 9 -3 40 -15 68 -25z m3440 -1 c-3 -8 -6 -5 -6 6 -1 11 2 17 5 13 3 -3 4
-12 1 -19z m-1490 -50 c-2 -13 -4 -5 -4 17 -1 22 1 32 4 23 2 -10 2 -28 0 -40z
m-4130 -40 c-2 -18 -4 -6 -4 27 0 33 2 48 4 33 2 -15 2 -42 0 -60z m3077 10
c-4 -6 -3 -9 2 -5 5 3 22 -17 37 -44 15 -27 25 -49 23 -49 -2 0 -22 22 -45 48
-30 37 -39 54 -34 71 5 20 7 21 15 7 5 -9 6 -21 2 -28z m-1013 15 c13 -16 12
-17 -3 -4 -17 13 -22 21 -14 21 2 0 10 -8 17 -17z m2076 -45 c-3 -8 -6 -5 -6
6 -1 11 2 17 5 13 3 -3 4 -12 1 -19z m-1803 -21 c10 -4 16 -10 13 -13 -8 -9
-47 15 -47 29 0 8 3 9 8 1 4 -6 16 -14 26 -17z m-434 -22 c13 -14 21 -25 18
-25 -2 0 -15 11 -28 25 -13 14 -21 25 -18 25 2 0 15 -11 28 -25z m2269 -35 c0
-13 -1 -13 -8 0 -5 8 -12 26 -15 40 l-7 25 15 -25 c9 -14 15 -32 15 -40z
m-3538 -48 c6 -18 9 -36 6 -38 -3 -3 -8 9 -12 26 -5 23 -19 39 -51 59 -24 14
-44 29 -44 33 0 4 20 -5 45 -20 30 -18 48 -38 56 -60z m1689 48 c8 -5 11 -10
5 -10 -5 0 -17 5 -25 10 -8 5 -10 10 -5 10 6 0 17 -5 25 -10z m-445 -51 c9
-17 14 -33 12 -36 -3 -2 -9 6 -13 19 -7 22 -7 22 -15 3 -6 -16 -8 -14 -8 13
-1 40 4 40 24 1z m-2017 -10 c19 -30 11 -32 -11 -3 -10 13 -14 24 -10 24 5 0
14 -9 21 -21z m-215 -14 c-3 -9 -8 -14 -10 -11 -3 3 -2 9 2 15 9 16 15 13 8
-4z m197 -20 c0 -5 -5 -3 -10 5 -5 8 -10 20 -10 25 0 6 5 3 10 -5 5 -8 10 -19
10 -25z m-89 -12 c-12 -20 -14 -14 -5 12 4 9 9 14 11 11 3 -2 0 -13 -6 -23z
m2212 20 c2 -5 0 -19 -4 -33 l-9 -25 4 27 c2 18 -2 28 -13 31 -14 4 -14 5 1 6
9 0 19 -2 21 -6z m1917 -18 c0 -20 -36 -90 -65 -130 -32 -43 -91 -163 -105
-214 -6 -24 -13 -41 -15 -40 -6 7 34 195 50 234 21 50 74 136 95 152 21 17 40
16 40 -2z m-3195 -54 c-4 -32 -10 -117 -14 -188 l-7 -130 -55 -99 c-30 -54
-59 -108 -62 -118 -4 -10 -10 -16 -14 -13 -3 4 23 57 57 119 l63 113 9 155 c5
85 10 170 10 188 1 17 6 32 11 32 5 0 6 -26 2 -59z m-813 34 c2 3 5 -2 5 -10
0 -21 -10 -19 -26 8 -13 19 -12 21 1 10 8 -7 17 -11 20 -8z m-105 -27 c-3 -7
-5 -2 -5 12 0 14 2 19 5 13 2 -7 2 -19 0 -25z m2060 10 c-3 -8 -6 -5 -6 6 -1
11 2 17 5 13 3 -3 4 -12 1 -19z m-2210 -20 c-3 -7 -5 -2 -5 12 0 14 2 19 5 13
2 -7 2 -19 0 -25z m40 0 c-3 -8 -6 -5 -6 6 -1 11 2 17 5 13 3 -3 4 -12 1 -19z
m6040 -10 c-3 -7 -5 -2 -5 12 0 14 2 19 5 13 2 -7 2 -19 0 -25z m-5787 -102
c0 -5 -15 12 -34 38 -21 30 -36 43 -39 35 -2 -8 -3 -6 -2 4 2 9 -1 17 -6 17
-5 0 -9 8 -9 17 0 17 89 -94 90 -111z m1989 -11 c-1 -11 -7 7 -15 40 -7 33
-13 69 -13 80 1 11 7 -7 15 -40 7 -33 13 -69 13 -80z m2180 110 c39 -33 52
-77 54 -173 1 -82 -30 -197 -78 -291 -45 -89 -42 -87 -121 -62 -91 30 -105 38
-165 96 -35 34 -49 54 -45 68 8 33 97 171 121 189 13 10 31 15 40 12 12 -5 13
-9 5 -14 -8 -5 -7 -9 5 -13 10 -5 14 -3 9 5 -5 8 2 9 24 5 42 -8 41 0 0 11
l-33 9 25 11 c17 7 19 11 8 11 -9 1 -20 -3 -23 -9 -3 -5 -11 -10 -17 -10 -7 0
-6 6 2 15 7 8 18 15 25 15 17 0 82 75 103 118 9 17 19 32 23 32 4 0 21 -11 38
-25z m-2159 11 c0 -2 -8 -10 -17 -17 -16 -13 -17 -12 -4 4 13 16 21 21 21 13z
m-2196 -40 c-3 -15 -8 -25 -11 -23 -2 3 -1 17 3 31 3 15 8 25 11 23 2 -3 1
-17 -3 -31z m53 2 c-3 -7 -5 -2 -5 12 0 14 2 19 5 13 2 -7 2 -19 0 -25z m2060
-55 c-2 -16 -4 -3 -4 27 0 30 2 43 4 28 2 -16 2 -40 0 -55z m-2214 47 c3 -11
2 -22 -2 -24 -4 -3 -8 6 -9 20 -2 29 4 31 11 4z m164 -42 c-3 -7 -5 -2 -5 12
0 14 2 19 5 13 2 -7 2 -19 0 -25z m5920 0 c-3 -7 -5 -2 -5 12 0 14 2 19 5 13
2 -7 2 -19 0 -25z m-6168 -72 c-9 -8 -10 -8 -5 2 4 6 4 17 0 23 -4 6 -18 -7
-35 -33 -16 -23 -29 -39 -29 -35 0 9 28 55 49 80 14 17 16 17 23 -4 6 -14 4
-26 -3 -33z m269 -6 c0 -9 -3 -7 -8 5 -5 11 -8 29 -8 40 0 16 2 15 8 -5 4 -14
8 -32 8 -40z m39 28 c-3 -7 -5 -2 -5 12 0 14 2 19 5 13 2 -7 2 -19 0 -25z m50
-30 c-3 -7 -5 -2 -5 12 0 14 2 19 5 13 2 -7 2 -19 0 -25z m-297 -42 c0 -6 -4
-5 -9 3 -7 11 -9 11 -14 0 -3 -8 -4 -4 -4 8 1 17 4 19 14 11 7 -6 13 -16 13
-22z m257 2 c-3 -7 -5 -2 -5 12 0 14 2 19 5 13 2 -7 2 -19 0 -25z m-215 -9
c-4 -26 -6 -29 -14 -15 -10 18 -4 46 10 46 5 0 6 -14 4 -31z m45 -6 c-3 -10
-5 -4 -5 12 0 17 2 24 5 18 2 -7 2 -21 0 -30z m200 -15 c-2 -13 -4 -5 -4 17
-1 22 1 32 4 23 2 -10 2 -28 0 -40z m-427 3 c-5 -11 -15 -23 -21 -27 -6 -3 -3
5 6 20 20 30 30 35 15 7z m357 -18 c-3 -10 -5 -4 -5 12 0 17 2 24 5 18 2 -7 2
-21 0 -30z m-210 -25 c-3 -7 -5 -2 -5 12 0 14 2 19 5 13 2 -7 2 -19 0 -25z
m272 -108 c-1 -52 -2 -90 -4 -85 -7 22 -12 219 -4 200 4 -11 8 -63 8 -115z
m-452 88 c-3 -8 -6 -5 -6 6 -1 11 2 17 5 13 3 -3 4 -12 1 -19z m380 -110 c-2
-18 -4 -4 -4 32 0 36 2 50 4 33 2 -18 2 -48 0 -65z m-187 72 c0 -5 -10 -10
-22 -9 -22 0 -22 1 -3 9 11 5 21 9 23 9 1 1 2 -3 2 -9z m57 -92 c-2 -18 -4 -4
-4 32 0 36 2 50 4 33 2 -18 2 -48 0 -65z m-260 40 c-3 -7 -5 -2 -5 12 0 14 2
19 5 13 2 -7 2 -19 0 -25z m-417 -32 c0 -6 -7 -1 -15 10 -8 10 -14 26 -14 34
0 16 28 -28 29 -44z m-204 -4 c-7 -20 -17 -57 -21 -82 -4 -25 -10 -39 -12 -32
-3 7 1 36 8 65 16 63 16 64 18 77 0 6 5 10 11 10 5 0 3 -16 -4 -38z m811 -24
c-2 -13 -4 -3 -4 22 0 25 2 35 4 23 2 -13 2 -33 0 -45z m210 -60 c-3 -7 -5 -2
-5 12 0 14 2 19 5 13 2 -7 2 -19 0 -25z m-840 -10 c-3 -8 -6 -5 -6 6 -1 11 2
17 5 13 3 -3 4 -12 1 -19z m620 0 c-3 -8 -6 -5 -6 6 -1 11 2 17 5 13 3 -3 4
-12 1 -19z m6312 -114 c28 -67 51 -128 51 -135 -1 -8 -14 19 -30 60 -16 41
-33 77 -38 80 -5 3 -19 35 -30 71 -33 97 -10 60 47 -76z m-6265 69 c9 -18 14
-33 12 -33 -6 0 -36 55 -36 66 0 11 5 3 24 -33z m234 -90 l-2 -48 -3 49 c-3
32 -13 60 -29 81 -13 17 -24 36 -24 40 0 4 14 -11 30 -33 24 -34 30 -51 28
-89z m-911 95 c-3 -8 -6 -5 -6 6 -1 11 2 17 5 13 3 -3 4 -12 1 -19z m-210 -45
c-3 -10 -5 -2 -5 17 0 19 2 27 5 18 2 -10 2 -26 0 -35z m860 25 c-3 -8 -6 -5
-6 6 -1 11 2 17 5 13 3 -3 4 -12 1 -19z m70 0 c-3 -8 -6 -5 -6 6 -1 11 2 17 5
13 3 -3 4 -12 1 -19z m-100 -10 c-3 -8 -6 -5 -6 6 -1 11 2 17 5 13 3 -3 4 -12
1 -19z m-630 -20 c-3 -7 -5 -2 -5 12 0 14 2 19 5 13 2 -7 2 -19 0 -25z m1565
-30 c-7 -7 -12 -8 -12 -2 0 14 12 26 19 19 2 -3 -1 -11 -7 -17z m-1742 -164
c0 -12 -50 -38 -58 -30 -2 3 7 10 22 16 21 7 25 15 21 32 -19 84 -24 115 -24
133 1 19 38 -127 39 -151z m121 87 c-61 -70 -79 -86 -89 -77 -4 4 2 12 12 18
28 16 105 100 112 123 5 12 9 15 11 7 3 -7 -18 -39 -46 -71z m3324 14 c21 -27
59 -71 84 -97 25 -27 40 -48 34 -48 -13 0 -63 55 -123 133 -23 32 -44 56 -47
54 -2 -2 3 -19 11 -38 7 -19 16 -54 19 -79 l6 -45 -13 50 c-7 28 -19 62 -26
77 -7 15 -10 35 -6 44 7 19 6 20 61 -51z m1715 11 c0 -7 -97 -66 -109 -66 -15
0 -127 -44 -193 -76 -27 -12 -48 -18 -48 -13 0 5 12 14 28 20 47 18 245 103
282 121 39 19 40 20 40 14z m-4370 -46 c0 -5 -7 -7 -15 -4 -8 4 -15 8 -15 10
0 2 7 4 15 4 8 0 15 -4 15 -10z m-213 -22 c-3 -8 -6 -5 -6 6 -1 11 2 17 5 13
3 -3 4 -12 1 -19z m530 -90 c-2 -24 -4 -7 -4 37 0 44 2 63 4 43 2 -21 2 -57 0
-80z m1773 29 c19 -25 20 -29 5 -17 -11 8 -24 21 -28 28 -5 7 -13 9 -19 6 -7
-4 -8 -2 -4 4 11 18 19 14 46 -21z m4247 1 c-3 -8 -6 -5 -6 6 -1 11 2 17 5 13
3 -3 4 -12 1 -19z m-6350 -20 c-3 -7 -5 -2 -5 12 0 14 2 19 5 13 2 -7 2 -19 0
-25z m2716 -68 c205 -1 249 -5 263 -24 10 -15 14 -54 14 -153 0 -172 8 -166
-199 -161 -106 2 -154 7 -163 16 -9 9 -14 53 -16 142 -4 128 -3 130 22 155 22
22 25 33 21 68 l-5 42 11 -42 c10 -42 11 -43 52 -43z m-1753 31 c0 -21 3 -54
6 -72 4 -19 3 -31 -1 -27 -11 10 -23 138 -13 138 4 0 8 -17 8 -39z m5357 33
c-3 -3 -12 -4 -19 -1 -8 3 -5 6 6 6 11 1 17 -2 13 -5z m-4307 -7 c0 -2 -10
-12 -22 -23 l-23 -19 19 23 c18 21 26 27 26 19z m160 -84 c0 -4 -11 9 -25 29
-14 20 -25 40 -25 45 0 4 11 -9 25 -29 14 -20 25 -40 25 -45z m4050 9 c30 -36
49 -63 43 -59 -18 11 -116 127 -106 126 4 0 33 -30 63 -67z m-1610 1 c0 -26
-1 -26 -15 -7 -19 25 -19 34 0 34 10 0 15 -10 15 -27z m158 -8 c-1 -36 -18
-50 -18 -16 0 20 10 51 16 51 2 0 3 -16 2 -35z m-2318 -80 l0 -105 41 0 c38 0
40 -1 37 -27 -3 -26 -6 -28 -40 -25 l-38 4 0 -41 0 -41 -40 0 c-40 0 -40 0
-40 39 l0 39 -125 -4 -125 -4 0 33 c0 36 4 41 110 122 36 27 83 65 104 82 30
25 49 33 78 33 l38 0 0 -105z m950 0 l0 -105 41 0 c38 0 40 -1 37 -27 -3 -24
-8 -28 -40 -31 -36 -3 -38 -5 -38 -38 0 -33 -1 -34 -40 -34 -39 0 -40 1 -40
35 l0 35 -64 0 c-34 0 -91 3 -125 6 -59 7 -61 8 -61 35 0 15 4 29 9 31 5 2 35
26 66 53 178 154 165 145 212 145 l43 0 0 -105z m-1480 55 c-17 -22 -34 -40
-37 -40 -2 0 10 18 27 40 17 22 34 40 37 40 2 0 -10 -18 -27 -40z m-1903 -17
c-3 -10 -5 -2 -5 17 0 19 2 27 5 18 2 -10 2 -26 0 -35z m320 -30 c-2 -16 -4
-3 -4 27 0 30 2 43 4 28 2 -16 2 -40 0 -55z m1867 31 c3 -8 2 -12 -4 -9 -6 3
-10 10 -10 16 0 14 7 11 14 -7z m2528 -6 c-7 -7 -12 -8 -12 -2 0 14 12 26 19
19 2 -3 -1 -11 -7 -17z m-5488 -12 c-3 -9 -10 -13 -16 -10 -5 3 -4 12 3 20 15
18 22 13 13 -10z m5435 -53 c0 -25 -1 -25 -8 -8 -5 11 -7 23 -4 28 8 14 13 7
12 -20z m-4352 -30 c-3 -10 -5 -4 -5 12 0 17 2 24 5 18 2 -7 2 -21 0 -30z
m1513 23 c0 -2 -8 -10 -17 -17 -16 -13 -17 -12 -4 4 13 16 21 21 21 13z m-66
-79 c-22 -24 -41 -42 -43 -40 -5 3 70 83 77 83 3 0 -13 -19 -34 -43z m-1997
-139 c-2 -29 -3 -6 -3 52 0 58 1 81 3 53 2 -29 2 -77 0 -105z m523 94 c0 -5
-7 -17 -15 -28 -14 -18 -14 -17 -4 9 12 27 19 34 19 19z m-313 -34 c-3 -8 -6
-5 -6 6 -1 11 2 17 5 13 3 -3 4 -12 1 -19z m1714 -1 c-10 -9 -11 -8 -5 6 3 10
9 15 12 12 3 -3 0 -11 -7 -18z m440 -4 c-12 -20 -14 -14 -5 12 4 9 9 14 11 11
3 -2 0 -13 -6 -23z m63 -75 c9 -51 19 -104 22 -117 5 -21 3 -23 -10 -12 -9 7
-13 18 -9 24 3 5 1 7 -5 3 -6 -3 -13 -2 -17 3 -3 5 2 14 11 19 15 8 15 10 0
15 -10 4 -16 1 -16 -9 0 -12 -4 -13 -21 -3 -28 14 -41 1 -42 -44 0 -20 -5 -34
-9 -31 -4 3 -8 0 -8 -5 0 -6 5 -11 10 -11 6 0 10 -5 10 -11 0 -6 -7 -9 -15 -5
-8 3 -15 1 -15 -3 0 -5 -3 -18 -7 -28 -6 -17 -5 -17 13 -1 17 14 21 14 33 1 8
-9 22 -12 38 -8 15 3 22 2 19 -4 -4 -5 -1 -13 5 -17 8 -4 9 -3 5 4 -4 7 -1 12
6 12 8 0 6 5 -4 11 -19 10 -25 49 -9 49 13 0 23 -17 14 -23 -5 -2 -2 -2 6 0
14 3 14 4 -4 -102 -3 -16 -7 -44 -10 -62 -5 -30 -7 -32 -31 -21 -18 9 -21 14
-12 21 9 6 8 7 -5 3 -9 -3 -42 4 -72 15 l-55 20 24 47 c13 26 43 106 66 177
24 72 49 134 56 138 8 4 14 13 14 20 0 8 -4 6 -11 -3 -9 -12 -10 -12 -5 3 3
10 6 23 6 28 0 6 4 8 9 5 5 -3 16 -48 25 -98z m14 66 c-3 -14 -5 -12 -10 9 -3
19 -2 25 4 19 6 -6 8 -18 6 -28z m89 10 c2 -13 1 -15 -4 -4 -3 8 -11 19 -17
23 -7 6 -6 7 4 4 8 -2 16 -12 17 -23z m-627 -17 c0 -2 -10 -12 -22 -23 l-23
-19 19 23 c18 21 26 27 26 19z m-1763 -29 c-3 -8 -6 -5 -6 6 -1 11 2 17 5 13
3 -3 4 -12 1 -19z m330 -28 c-11 -27 -23 -48 -25 -46 -4 5 35 96 42 96 2 0 -5
-22 -17 -50z m1996 -49 c-6 -8 -11 5 -17 49 l-5 45 13 -45 c7 -25 11 -47 9
-49z m97 69 c6 -11 8 -20 6 -20 -3 0 -10 9 -16 20 -6 11 -8 20 -6 20 3 0 10
-9 16 -20z m-2353 -12 c-3 -8 -6 -5 -6 6 -1 11 2 17 5 13 3 -3 4 -12 1 -19z
m-21 -46 c-12 -11 -17 7 -9 34 l8 29 3 -28 c2 -16 1 -31 -2 -35z m1658 23 c-9
-14 -18 -25 -21 -25 -5 0 5 18 20 38 17 22 18 13 1 -13z m1146 -20 c12 -17 20
-45 12 -45 -10 0 -32 61 -31 81 1 8 4 5 6 -6 3 -11 8 -24 13 -30z m-2767 -5
c-3 -12 -8 -19 -11 -16 -5 6 5 36 12 36 2 0 2 -9 -1 -20z m-226 -122 c-2 -24
-4 -5 -4 42 0 47 2 66 4 43 2 -24 2 -62 0 -85z m150 80 c-3 -7 -5 -2 -5 12 0
14 2 19 5 13 2 -7 2 -19 0 -25z m2170 10 c-3 -8 -6 -5 -6 6 -1 11 2 17 5 13 3
-3 4 -12 1 -19z m287 6 c3 -8 2 -12 -4 -9 -6 3 -10 10 -10 16 0 14 7 11 14 -7z
m-801 -9 c-3 -9 -8 -14 -10 -11 -3 3 -2 9 2 15 9 16 15 13 8 -4z m616 -55 c24
-22 46 -40 48 -40 3 0 2 18 -2 40 -5 32 -4 40 8 40 22 0 29 -48 18 -112 -2
-16 -24 -7 -59 27 -20 19 -40 35 -44 35 -4 0 -4 -16 -1 -35 5 -31 3 -35 -16
-35 -19 0 -21 5 -21 60 0 73 9 75 69 20z m227 32 c7 -4 13 -29 15 -57 l4 -50
-63 -3 c-88 -4 -91 -1 -83 111 1 9 112 9 127 -1z m159 -2 c4 -6 -7 -10 -24
-10 -30 0 -31 -1 -31 -50 0 -27 -4 -50 -10 -50 -5 0 -10 23 -10 50 0 49 -1 50
-31 50 -17 0 -28 4 -24 10 3 6 33 10 65 10 32 0 62 -4 65 -10z m230 0 c4 -6
-12 -10 -39 -10 -34 0 -46 -4 -46 -15 0 -9 9 -15 25 -15 14 0 25 -4 25 -10 0
-5 -11 -10 -25 -10 -20 0 -25 -5 -25 -25 0 -16 -6 -25 -15 -25 -11 0 -15 13
-15 53 0 30 3 57 7 60 10 11 101 8 108 -3z m153 -52 l3 -58 -59 0 c-32 0 -63
5 -70 12 -13 13 -17 90 -5 102 4 4 34 6 68 4 l60 -3 3 -57z m60 9 l3 -47 38 0
37 0 0 45 c-1 24 4 45 9 45 6 0 10 -24 10 -52 l0 -53 -60 0 -60 0 -3 59 c-2
44 0 57 10 54 8 -3 14 -24 16 -51z m184 21 c8 -7 23 -21 35 -32 l22 -18 -5 42
c-4 36 -2 41 12 38 14 -2 18 -15 19 -61 2 -66 -8 -71 -51 -26 -49 52 -60 53
-56 8 3 -31 1 -39 -12 -39 -13 0 -16 12 -16 60 0 57 1 60 19 50 11 -5 26 -16
33 -22z m233 7 c30 -29 31 -49 4 -76 -16 -16 -30 -19 -72 -17 l-52 3 -3 58 -3
57 51 0 c41 0 56 -5 75 -25z m-3244 -16 c-5 -13 -10 -19 -10 -12 -1 15 10 45
15 40 3 -2 0 -15 -5 -28z m1327 -18 c-18 -27 -35 -48 -36 -46 -5 4 57 95 64
95 2 0 -10 -22 -28 -49z m-1611 -8 c-3 -10 -5 -2 -5 17 0 19 2 27 5 18 2 -10
2 -26 0 -35z m103 3 c0 -26 -6 -18 -14 19 -5 22 -4 26 4 15 5 -8 10 -24 10
-34z m2057 22 c-3 -8 -6 -5 -6 6 -1 11 2 17 5 13 3 -3 4 -12 1 -19z m-2050
-80 c-3 -8 -6 -5 -6 6 -1 11 2 17 5 13 3 -3 4 -12 1 -19z m-120 -10 c-3 -8 -6
-5 -6 6 -1 11 2 17 5 13 3 -3 4 -12 1 -19z m2134 -5 c-12 -20 -14 -14 -5 12 4
9 9 14 11 11 3 -2 0 -13 -6 -23z m-1954 -5 c-3 -8 -6 -5 -6 6 -1 11 2 17 5 13
3 -3 4 -12 1 -19z m-50 -30 c-3 -7 -5 -2 -5 12 0 14 2 19 5 13 2 -7 2 -19 0
-25z m130 10 c-3 -8 -6 -5 -6 6 -1 11 2 17 5 13 3 -3 4 -12 1 -19z m-270 -40
c-2 -13 -4 -5 -4 17 -1 22 1 32 4 23 2 -10 2 -28 0 -40z m1558 22 c-9 -16 -18
-30 -21 -30 -2 0 2 14 11 30 9 17 18 30 21 30 2 0 -2 -13 -11 -30z m1022 -12
c-3 -8 -6 -5 -6 6 -1 11 2 17 5 13 3 -3 4 -12 1 -19z m-473 -25 c-9 -21 -20
-42 -25 -48 -9 -9 15 56 28 78 12 20 10 3 -3 -30z m334 2 c-3 -3 -9 2 -12 12
-6 14 -5 15 5 6 7 -7 10 -15 7 -18z m-2181 -37 c-2 -13 -4 -5 -4 17 -1 22 1
32 4 23 2 -10 2 -28 0 -40z m2343 -2 c0 -26 -6 -18 -14 19 -5 22 -4 26 4 15 5
-8 10 -24 10 -34z m-1086 4 c-10 -16 -20 -28 -22 -26 -4 5 28 56 35 56 2 0 -4
-13 -13 -30z m-1577 -17 c-3 -10 -5 -4 -5 12 0 17 2 24 5 18 2 -7 2 -21 0 -30z
m2562 14 c8 -10 7 -14 -2 -14 -8 0 -14 6 -14 14 0 7 1 13 2 13 2 0 8 -6 14
-13z m-2 -62 c21 -42 1 -19 -26 30 -13 22 -15 31 -6 20 9 -11 23 -33 32 -50z
m-2620 18 c-3 -10 -5 -4 -5 12 0 17 2 24 5 18 2 -7 2 -21 0 -30z m304 11 c5
-15 8 -29 5 -31 -2 -2 -8 10 -14 26 -13 38 -5 41 9 5z m1880 -21 c-12 -20 -14
-14 -5 12 4 9 9 14 11 11 3 -2 0 -13 -6 -23z m546 -5 c-3 -7 -5 -2 -5 12 0 14
2 19 5 13 2 -7 2 -19 0 -25z m-1097 -13 l25 -30 -27 24 c-16 14 -28 29 -28 34
0 6 1 8 3 6 1 -2 13 -17 27 -34z m-1553 -17 c-3 -7 -5 -2 -5 12 0 14 2 19 5
13 2 -7 2 -19 0 -25z m-72 12 c7 -12 -2 -12 -30 0 -19 8 -19 9 2 9 12 1 25 -3
28 -9z m355 -4 c0 -2 -7 -7 -16 -10 -8 -3 -12 -2 -9 4 6 10 25 14 25 6z"/>
<path d="M6460 3657 c0 -13 -5 -28 -12 -35 -6 -6 -8 -15 -4 -19 4 -4 12 1 18
11 8 15 12 16 19 5 5 -9 7 -3 4 16 -2 17 -4 33 -4 38 -2 19 -21 4 -21 -16z"/>
<path d="M6645 3650 c-7 -12 2 -12 30 0 19 8 19 9 -2 9 -12 1 -25 -3 -28 -9z"/>
<path d="M6540 3639 c0 -7 81 0 90 8 2 2 -17 3 -43 2 -26 -2 -47 -6 -47 -10z"/>
<path d="M6422 3605 c0 -16 2 -22 5 -12 2 9 2 23 0 30 -3 6 -5 -1 -5 -18z"/>
<path d="M6270 3590 c-20 -6 -21 -8 -5 -8 11 0 29 3 40 8 25 11 -1 11 -35 0z"/>
<path d="M6401 3533 c0 -10 3 -13 5 -6 3 7 13 9 22 6 15 -4 15 -3 2 6 -22 15
-30 14 -29 -6z"/>
<path d="M6207 3489 c12 -12 24 -21 27 -18 2 2 -8 13 -22 23 l-27 19 22 -24z"/>
<path d="M6480 3495 c-7 -8 -11 -15 -9 -16 24 -5 47 -4 43 3 -3 4 1 8 8 8 9 0
9 3 -2 10 -20 13 -25 12 -40 -5z m30 1 c0 -2 -7 -7 -16 -10 -8 -3 -12 -2 -9 4
6 10 25 14 25 6z"/>
<path d="M6421 3486 c2 -2 15 -9 29 -16 23 -12 24 -12 11 3 -7 10 -20 17 -29
17 -8 0 -13 -2 -11 -4z"/>
<path d="M6407 3469 c7 -7 15 -10 18 -7 3 3 -2 9 -12 12 -14 6 -15 5 -6 -5z"/>
<path d="M6230 3451 c0 -5 5 -13 10 -16 6 -3 10 -2 10 4 0 5 -4 13 -10 16 -5
3 -10 2 -10 -4z"/>
<path d="M6262 3440 c0 -14 2 -19 5 -12 2 6 2 18 0 25 -3 6 -5 1 -5 -13z"/>
<path d="M6300 3417 c0 -25 -5 -58 -11 -74 -7 -18 -7 -29 0 -31 5 -2 8 -9 5
-16 -3 -8 1 -16 9 -19 21 -8 26 21 17 103 -9 83 -20 103 -20 37z"/>
<path d="M6488 3423 c7 -3 16 -2 19 1 4 3 -2 6 -13 5 -11 0 -14 -3 -6 -6z"/>
<path d="M6620 3422 c0 -7 -10 -13 -22 -13 -19 -1 -20 -2 -4 -6 20 -5 44 12
33 24 -4 3 -7 1 -7 -5z"/>
<path d="M6236 3405 c-3 -8 -1 -15 4 -15 6 0 10 7 10 15 0 8 -2 15 -4 15 -2 0
-6 -7 -10 -15z"/>
<path d="M6538 3403 c13 -3 19 -9 16 -15 -4 -7 -2 -8 5 -4 17 11 3 26 -22 25
-22 -2 -22 -2 1 -6z"/>
<path d="M6749 3393 c-2 -34 3 -68 12 -83 7 -11 8 -8 3 9 -3 12 -6 38 -6 57 0
35 -7 48 -9 17z"/>
<path d="M6630 3391 c0 -5 5 -13 10 -16 6 -3 10 -2 10 4 0 5 -4 13 -10 16 -5
3 -10 2 -10 -4z"/>
<path d="M6266 3382 c-3 -5 1 -9 9 -9 8 0 12 4 9 9 -3 4 -7 8 -9 8 -2 0 -6 -4
-9 -8z"/>
<path d="M6391 3364 c0 -11 3 -14 6 -6 3 7 2 16 -1 19 -3 4 -6 -2 -5 -13z"/>
<path d="M6250 3348 c0 -9 5 -20 10 -23 13 -8 13 5 0 25 -8 13 -10 13 -10 -2z"/>
<path d="M6729 3328 c-1 -18 -2 -48 -4 -66 -1 -18 2 -35 7 -38 5 -3 4 -12 -4
-21 -11 -13 -13 -13 -19 4 -7 16 -8 16 -8 -4 -1 -12 -5 -25 -11 -28 -5 -3 -10
-13 -10 -21 0 -24 68 60 75 91 5 26 4 27 -4 8 -16 -37 -19 -27 -14 42 2 36 2
65 -1 65 -3 0 -6 -15 -7 -32z"/>
<path d="M6001 3310 c1 -19 3 -20 6 -7 4 14 12 18 33 15 16 -2 27 -1 24 3 -2
4 1 9 8 11 6 2 -7 4 -30 4 -38 -1 -42 -3 -41 -26z"/>
<path d="M6701 3314 c0 -11 3 -14 6 -6 3 7 2 16 -1 19 -3 4 -6 -2 -5 -13z"/>
<path d="M6000 3250 c0 -5 9 -10 20 -10 11 0 20 5 20 10 0 6 -9 10 -20 10 -11
0 -20 -4 -20 -10z"/>
<path d="M6344 3206 c4 -13 2 -17 -7 -13 -10 4 -13 -3 -12 -21 1 -20 7 -28 23
-30 15 -2 22 1 20 10 -4 16 106 15 153 -1 16 -5 29 -8 29 -6 0 7 -63 33 -95
40 -16 3 -39 8 -50 11 -16 4 -17 3 -5 -5 13 -9 12 -11 -5 -11 -11 0 -31 -3
-45 -5 -23 -5 -23 -5 -4 4 12 5 25 15 30 22 5 8 3 10 -6 4 -7 -4 -16 -2 -22 6
-7 11 -8 9 -4 -5z"/>
<path d="M6398 3213 c6 -2 18 -2 25 0 6 3 1 5 -13 5 -14 0 -19 -2 -12 -5z"/>
<path d="M6480 3211 c0 -8 -7 -10 -21 -6 -15 5 -19 4 -15 -4 4 -6 13 -11 21
-11 16 0 30 18 21 27 -3 4 -6 1 -6 -6z"/>
<path d="M6670 3204 c0 -8 5 -12 10 -9 6 4 8 11 5 16 -9 14 -15 11 -15 -7z"/>
<path d="M6535 3200 c3 -5 8 -10 11 -10 2 0 4 5 4 10 0 6 -5 10 -11 10 -5 0
-7 -4 -4 -10z"/>
<path d="M6510 3185 c7 -9 15 -13 17 -11 7 7 -7 26 -19 26 -6 0 -6 -6 2 -15z"/>
<path d="M6440 3139 c0 -5 5 -7 10 -4 6 3 10 8 10 11 0 2 -4 4 -10 4 -5 0 -10
-5 -10 -11z"/>
<path d="M6098 3132 c9 -3 10 -7 2 -17 -8 -10 -6 -15 12 -21 40 -13 44 -12 43
15 0 23 -4 26 -35 27 -19 0 -29 -1 -22 -4z m47 -21 c3 -5 0 -13 -6 -17 -8 -5
-9 -3 -4 6 6 10 4 12 -9 7 -10 -4 -15 -3 -11 3 8 13 22 13 30 1z"/>
<path d="M6555 3130 c-19 -7 -18 -8 5 -13 14 -2 41 -5 60 -5 26 -1 31 1 20 8
-8 6 -28 7 -45 4 -23 -4 -26 -3 -15 5 18 12 4 13 -25 1z"/>
<path d="M6477 3124 c-4 -4 -4 -11 -1 -15 7 -12 54 -12 54 0 0 4 -12 6 -26 3
-19 -3 -25 -1 -20 7 8 12 3 15 -7 5z"/>
<path d="M6430 3110 c0 -5 7 -10 16 -10 8 0 12 5 9 10 -3 6 -10 10 -16 10 -5
0 -9 -4 -9 -10z"/>
<path d="M6320 3100 c0 -5 5 -10 10 -10 6 0 10 5 10 10 0 6 -4 10 -10 10 -5 0
-10 -4 -10 -10z"/>
<path d="M6213 3044 c11 -7 27 -10 34 -7 7 3 13 0 13 -6 0 -6 9 -11 20 -11 11
0 20 4 20 10 0 5 -7 7 -15 4 -8 -4 -15 -2 -15 4 0 6 5 12 10 14 6 2 -12 3 -39
3 -43 0 -47 -2 -28 -11z"/>
<path d="M6350 3050 c-24 -8 -23 -8 8 -9 20 -1 31 3 27 9 -3 6 -7 10 -8 9 -1
-1 -13 -5 -27 -9z"/>
<path d="M6110 3580 c0 -5 5 -10 11 -10 5 0 7 5 4 10 -3 6 -8 10 -11 10 -2 0
-4 -4 -4 -10z"/>
<path d="M6078 3573 c7 -3 16 -2 19 1 4 3 -2 6 -13 5 -11 0 -14 -3 -6 -6z"/>
<path d="M3030 3571 c0 -19 4 -30 10 -26 6 4 8 10 5 15 -3 4 0 10 6 12 7 2 5
9 -5 17 -14 12 -16 10 -16 -18z"/>
<path d="M6625 3520 c3 -5 8 -10 11 -10 2 0 4 5 4 10 0 6 -5 10 -11 10 -5 0
-7 -4 -4 -10z"/>
<path d="M2414 3455 c3 -11 8 -51 11 -90 7 -81 14 -115 24 -115 4 0 24 18 44
41 l37 40 -33 31 c-17 17 -45 50 -60 72 -16 23 -26 32 -23 21z m44 -65 c12
-19 11 -20 -8 -8 -20 13 -27 28 -12 28 4 0 13 -9 20 -20z m-1 -50 c-2 -25 -13
-16 -19 15 -4 20 -2 23 8 14 7 -5 12 -19 11 -29z m26 13 c-4 -10 -2 -14 5 -9
19 11 24 -13 8 -36 -13 -18 -16 -19 -16 -5 0 9 5 17 10 17 6 0 10 5 10 11 0 5
-4 8 -9 4 -12 -7 -24 12 -16 25 10 16 15 12 8 -7z m-13 -74 c0 -14 -17 -10
-23 5 -4 10 -1 13 9 9 7 -3 14 -9 14 -14z"/>
<path d="M2502 3228 c-17 -17 -15 -31 3 -24 8 3 15 1 15 -4 0 -6 5 -10 10 -10
14 0 13 13 -3 33 -10 14 -15 15 -25 5z"/>
<path d="M2466 3202 c-3 -5 -1 -22 4 -38 9 -32 11 -31 16 8 3 27 -10 46 -20
30z"/>
<path d="M2503 3170 c3 -11 2 -20 -3 -20 -13 0 -21 -33 -10 -44 9 -9 15 3 11
27 0 4 4 6 10 5 6 -2 15 7 19 19 7 18 6 21 -7 16 -11 -4 -14 -2 -9 5 4 7 2 12
-5 12 -6 0 -9 -8 -6 -20z"/>
<path d="M2743 3088 c-23 -11 -29 -24 -15 -31 4 -2 18 7 31 20 26 25 20 28
-16 11z"/>
<path d="M2753 3055 c0 -8 8 -22 17 -30 15 -14 17 -13 15 3 -2 35 -32 60 -32
27z"/>
<path d="M1090 3429 c11 -19 9 -20 -22 -17 -18 2 -35 6 -38 10 -3 4 -13 -7
-23 -23 l-17 -30 26 20 c15 12 32 21 38 21 6 0 -3 -11 -20 -25 -18 -14 -41
-41 -53 -60 -19 -32 -19 -34 -1 -23 10 7 23 22 29 34 5 12 32 34 60 49 44 24
48 30 38 46 -16 26 -30 24 -17 -2z"/>
<path d="M1027 3264 c-4 -4 -7 -16 -7 -27 0 -14 5 -18 18 -15 12 3 24 -2 31
-14 10 -16 15 -17 27 -8 20 17 17 30 -5 25 -19 -3 -50 21 -43 34 5 8 -13 12
-21 5z"/>
<path d="M938 3245 c-4 -15 0 -20 17 -20 12 0 22 6 22 13 0 7 -6 11 -13 8 -7
-3 -14 0 -17 7 -2 6 -6 3 -9 -8z"/>
<path d="M1218 3223 c3 -16 12 -37 20 -48 l14 -20 -7 20 c-7 17 -11 38 -14 68
-1 4 -5 7 -10 7 -4 0 -6 -12 -3 -27z"/>
<path d="M938 3209 c-22 -12 -23 -26 -4 -26 8 0 17 9 19 19 3 10 4 18 4 18 -1
0 -10 -5 -19 -11z"/>
<path d="M1121 3164 c0 -11 3 -14 6 -6 3 7 2 16 -1 19 -3 4 -6 -2 -5 -13z"/>
<path d="M1041 3154 c0 -11 3 -14 6 -6 3 7 2 16 -1 19 -3 4 -6 -2 -5 -13z"/>
<path d="M812 3090 c0 -19 2 -27 5 -17 2 9 2 25 0 35 -3 9 -5 1 -5 -18z"/>
<path d="M1175 3061 c-3 -5 7 -22 21 -38 25 -27 26 -27 13 -3 -7 14 -12 31
-11 38 3 14 -14 16 -23 3z"/>
<path d="M1125 3039 c-4 -6 -5 -12 -2 -15 2 -3 7 2 10 11 7 17 1 20 -8 4z"/>
<path d="M1147 3033 c-4 -3 -7 -11 -7 -17 0 -6 5 -5 12 2 6 6 9 14 7 17 -3 3
-9 2 -12 -2z"/>
<path d="M861 3023 c-1 -6 -4 -20 -7 -30 -5 -17 -5 -17 6 0 6 10 9 23 6 30 -3
9 -5 9 -5 0z"/>
<path d="M1163 3017 c-4 -8 -22 -24 -39 -36 -26 -19 -35 -21 -53 -11 -12 6
-27 9 -34 6 -7 -2 -3 -5 8 -6 18 -1 18 -2 -5 -15 -16 -9 -19 -14 -9 -15 8 0
20 5 27 12 6 6 15 9 18 5 12 -12 -64 -37 -106 -35 -51 2 -63 -9 -18 -17 36 -7
113 9 136 27 7 6 15 8 18 5 3 -3 -7 -12 -23 -21 -15 -8 -23 -15 -18 -16 6 0
20 7 31 15 12 8 24 12 26 9 12 -11 58 21 66 45 14 45 -4 82 -25 48z m13 -46
c-16 -31 -44 -47 -58 -33 -6 6 56 62 70 62 1 0 -4 -13 -12 -29z"/>
<path d="M793 2990 c-7 -18 -8 -32 -2 -36 5 -3 9 -2 8 3 -3 19 2 34 10 29 5
-3 12 1 15 10 3 8 2 13 -3 9 -5 -3 -11 0 -13 5 -2 6 -8 -3 -15 -20z"/>
<path d="M1234 2986 c5 -13 2 -17 -9 -13 -8 4 -17 1 -21 -5 -5 -7 -2 -8 6 -3
10 6 12 4 6 -10 -5 -15 -4 -16 9 -5 8 7 15 8 15 2 0 -15 -26 -33 -35 -24 -5 4
-5 -1 -2 -10 3 -9 1 -19 -6 -22 -7 -2 -7 -5 -1 -5 18 -2 53 56 49 79 -2 13 -7
25 -11 29 -4 3 -4 -2 0 -13z"/>
<path d="M885 2962 c-3 -8 -3 -17 0 -20 3 -3 5 0 5 6 0 7 15 12 38 11 29 0 33
-2 17 -9 -17 -6 -14 -9 18 -15 21 -4 41 -5 44 -1 4 3 -6 6 -20 6 -15 0 -26 3
-26 8 4 21 -4 27 -36 28 -21 0 -36 -5 -40 -14z"/>
<path d="M975 2970 c3 -5 14 -10 23 -10 15 0 15 2 2 10 -20 13 -33 13 -25 0z"/>
<path d="M900 2929 c0 -5 5 -7 10 -4 6 3 10 8 10 11 0 2 -4 4 -10 4 -5 0 -10
-5 -10 -11z"/>
<path d="M881 2914 c0 -11 3 -14 6 -6 3 7 2 16 -1 19 -3 4 -6 -2 -5 -13z"/>
<path d="M1138 2885 c-3 -13 -1 -22 3 -19 5 3 9 12 9 20 0 8 5 14 10 14 14 0
13 -23 -2 -38 -9 -9 -9 -12 -1 -12 14 0 27 36 18 50 -11 19 -33 10 -37 -15z"/>
<path d="M995 2890 l-40 -7 43 -2 c23 0 42 4 42 9 0 6 -1 9 -2 9 -2 -1 -21 -5
-43 -9z"/>
<path d="M1008 2833 c6 -2 18 -2 25 0 6 3 1 5 -13 5 -14 0 -19 -2 -12 -5z"/>
<path d="M1119 2833 c0 -5 -2 -16 -4 -26 -3 -18 -3 -18 16 -1 10 9 19 21 19
26 0 10 -30 11 -31 1z"/>
<path d="M838 2813 c7 -3 16 -2 19 1 4 3 -2 6 -13 5 -11 0 -14 -3 -6 -6z"/>
<path d="M882 2809 c10 -5 33 -11 51 -13 19 -2 39 -6 44 -9 20 -13 94 -17 111
-7 13 7 9 8 -15 4 -21 -4 -33 -2 -33 4 0 6 8 9 18 6 14 -5 15 -4 2 5 -12 9
-13 11 -1 11 8 0 11 3 8 6 -4 4 -13 1 -22 -6 -8 -7 -15 -8 -15 -3 0 12 -63 11
-71 -1 -4 -5 -20 -4 -39 3 -41 14 -61 14 -38 0z m133 -9 c18 -8 17 -9 -7 -9
-16 -1 -28 4 -28 9 0 12 8 12 35 0z"/>
<path d="M3054 3265 c11 -8 26 -15 33 -15 22 0 14 8 -19 19 -30 10 -31 9 -14
-4z"/>
<path d="M4065 3290 c-31 -32 -32 -47 -1 -24 11 8 17 14 13 14 -5 0 -2 6 5 14
7 8 16 12 21 9 4 -2 7 1 7 6 0 19 -15 12 -45 -19z"/>
<path d="M2563 3279 c-13 -13 -6 -39 10 -39 8 0 7 4 -1 12 -9 9 -7 14 6 24 9
8 12 14 7 14 -6 0 -16 -5 -22 -11z"/>
<path d="M3946 3229 c4 -8 0 -9 -15 -4 -13 4 -21 2 -21 -5 0 -6 -4 -8 -10 -5
-5 3 -10 3 -10 0 0 -10 21 -98 27 -115 4 -8 7 -21 7 -29 1 -8 6 -16 13 -18 7
-3 10 3 6 15 -9 37 55 100 73 71 3 -5 0 -9 -5 -9 -6 0 -11 -3 -11 -7 0 -5 20
-8 45 -8 25 0 45 3 45 8 0 4 -8 7 -18 7 -11 0 -27 9 -37 20 -17 19 -17 20 25
26 39 6 41 8 25 20 -10 8 -40 17 -67 20 -27 4 -51 11 -54 15 -3 5 -10 9 -15 9
-6 0 -7 -5 -3 -11z m84 -35 c0 -2 -7 -4 -15 -4 -8 0 -15 4 -15 10 0 5 7 7 15
4 8 -4 15 -8 15 -10z m-113 -16 c-3 -8 -6 -5 -6 6 -1 11 2 17 5 13 3 -3 4 -12
1 -19z"/>
<path d="M4110 3180 c0 -5 5 -10 10 -10 6 0 10 5 10 10 0 6 -4 10 -10 10 -5 0
-10 -4 -10 -10z"/>
<path d="M4101 3094 c0 -11 3 -14 6 -6 3 7 2 16 -1 19 -3 4 -6 -2 -5 -13z"/>
<path d="M4008 3068 c5 -5 16 -8 23 -6 8 3 3 7 -10 11 -17 4 -21 3 -13 -5z"/>
<path d="M4198 3071 c11 -6 10 -10 -3 -15 -14 -5 -15 -9 -5 -21 7 -8 21 -15
31 -15 18 0 19 2 4 30 -9 17 -21 30 -28 30 -9 0 -8 -3 1 -9z"/>
<path d="M3966 3045 c-3 -8 -1 -15 4 -15 6 0 10 7 10 15 0 8 -2 15 -4 15 -2 0
-6 -7 -10 -15z"/>
<path d="M3993 3034 c-3 -8 0 -21 6 -27 9 -9 11 -8 6 6 -6 13 -2 17 19 17 14
0 26 5 26 10 0 16 -50 11 -57 -6z"/>
<path d="M3930 3030 c0 -5 5 -10 10 -10 6 0 10 5 10 10 0 6 -4 10 -10 10 -5 0
-10 -4 -10 -10z"/>
<path d="M4100 3029 c0 -4 5 -11 11 -14 6 -4 8 -13 5 -21 -3 -8 -2 -13 2 -13
18 3 26 -2 15 -9 -8 -5 -9 -13 -3 -22 8 -13 12 -13 26 2 16 16 16 19 -6 51
-21 30 -50 46 -50 26z m49 -37 c6 -12 6 -23 -1 -33 -8 -11 -9 -11 -4 3 3 10 1
20 -4 23 -10 6 -14 25 -5 25 2 0 9 -8 14 -18z"/>
<path d="M4023 2995 c-6 -14 -7 -25 -2 -25 11 0 22 25 17 39 -1 6 -8 -1 -15
-14z"/>
<path d="M3960 2995 c0 -2 10 -10 23 -16 20 -11 21 -11 8 4 -13 16 -31 23 -31
12z"/>
<path d="M4061 2976 c13 -18 12 -19 -6 -13 -18 7 -19 6 -3 -6 10 -8 15 -16 12
-19 -3 -4 0 -9 7 -14 7 -4 10 -3 5 4 -3 5 0 12 6 15 9 3 5 12 -11 28 -15 15
-19 16 -10 5z"/>
<path d="M6547 3059 c-9 -6 -17 -15 -17 -22 0 -8 3 -7 9 2 5 7 13 11 19 7 6
-3 13 -2 16 3 9 15 -7 21 -27 10z"/>
<path d="M6754 3019 c21 -9 25 -14 15 -20 -8 -5 1 -6 24 -2 24 3 37 2 37 -5 0
-6 7 -9 15 -6 23 9 9 21 -32 27 -21 3 -49 8 -63 11 -19 5 -19 4 4 -5z"/>
<path d="M6700 2998 c0 -13 7 -18 28 -17 21 1 22 2 7 6 -11 3 -23 10 -27 17
-5 7 -8 5 -8 -6z"/>
<path d="M6728 3003 c7 -3 16 -2 19 1 4 3 -2 6 -13 5 -11 0 -14 -3 -6 -6z"/>
<path d="M6479 2982 c9 -7 10 -11 2 -15 -7 -4 -8 -5 0 -3 15 2 13 20 -3 24
-10 3 -10 2 1 -6z"/>
<path d="M6939 2971 c13 -23 -9 -72 -45 -100 l-25 -20 31 -16 c18 -9 34 -14
38 -11 3 3 -1 6 -8 6 -9 0 -6 7 8 20 12 12 22 26 22 32 0 6 -9 -1 -21 -16 -11
-14 -25 -26 -31 -26 -7 0 -2 10 9 23 44 47 61 127 28 127 -12 0 -13 -4 -6 -19z"/>
<path d="M6901 2960 c16 -33 16 -33 23 -13 4 9 4 14 0 10 -4 -4 -13 1 -21 11
-12 15 -13 14 -2 -8z"/>
<path d="M7000 2945 c0 -8 5 -15 10 -15 6 0 10 4 10 9 0 5 8 12 18 14 10 3 6
5 -10 6 -19 1 -28 -4 -28 -14z"/>
<path d="M7044 2935 c-20 -15 -15 -18 26 -16 14 1 34 -5 45 -13 19 -14 19 -15
1 -35 -17 -19 -17 -21 -3 -21 10 0 18 8 19 18 2 32 4 37 11 48 9 16 -16 24
-56 19 -25 -4 -28 -3 -12 4 15 7 16 10 4 10 -8 1 -24 -6 -35 -14z m86 -15 c0
-5 -7 -7 -15 -4 -8 4 -15 8 -15 10 0 2 7 4 15 4 8 0 15 -4 15 -10z"/>
<path d="M6977 2923 c-4 -3 -7 -11 -7 -17 0 -6 5 -5 12 2 6 6 9 14 7 17 -3 3
-9 2 -12 -2z"/>
<path d="M6600 2910 c0 -5 5 -10 10 -10 6 0 10 5 10 10 0 6 -4 10 -10 10 -5 0
-10 -4 -10 -10z"/>
<path d="M6635 2900 c3 -5 11 -10 16 -10 6 0 7 5 4 10 -3 6 -11 10 -16 10 -6
0 -7 -4 -4 -10z"/>
<path d="M6895 2900 c-3 -5 -13 -7 -23 -4 -14 5 -15 4 -2 -5 13 -9 11 -11 -7
-11 -12 0 -24 -4 -27 -9 -10 -16 43 1 60 20 9 10 14 19 11 19 -3 0 -8 -4 -12
-10z"/>
<path d="M6760 2890 c-9 -6 -10 -10 -3 -10 6 0 15 5 18 10 8 12 4 12 -15 0z"/>
<path d="M6547 2873 c-4 -3 -7 -13 -7 -22 1 -13 3 -13 11 2 11 19 8 33 -4 20z"/>
<path d="M6645 2870 c-3 -5 -2 -10 4 -10 5 0 13 5 16 10 3 6 2 10 -4 10 -5 0
-13 -4 -16 -10z"/>
<path d="M6575 2860 c-3 -5 1 -10 9 -10 9 0 16 5 16 10 0 6 -4 10 -9 10 -6 0
-13 -4 -16 -10z"/>
<path d="M6797 2853 c-4 -3 -7 -11 -7 -17 0 -6 5 -5 12 2 6 6 9 14 7 17 -3 3
-9 2 -12 -2z"/>
<path d="M6532 2810 c0 -14 2 -19 5 -12 2 6 2 18 0 25 -3 6 -5 1 -5 -13z"/>
<path d="M6550 2819 c0 -5 5 -7 10 -4 6 3 10 8 10 11 0 2 -4 4 -10 4 -5 0 -10
-5 -10 -11z"/>
<path d="M6688 2823 c7 -3 16 -2 19 1 4 3 -2 6 -13 5 -11 0 -14 -3 -6 -6z"/>
<path d="M6816 2822 c-3 -6 -3 -18 0 -27 4 -10 1 -21 -7 -26 -10 -6 -11 -9 -1
-9 17 0 36 50 24 62 -6 6 -12 6 -16 0z"/>
<path d="M7009 2809 c-10 -7 -6 -8 14 -3 19 4 27 2 27 -7 0 -11 3 -11 10 1 7
10 8 -1 4 -35 -5 -47 -4 -49 10 -31 9 11 16 25 16 30 0 6 -5 4 -10 -4 -7 -11
-10 -11 -10 -2 0 7 7 23 14 35 14 21 14 22 -23 24 -20 1 -44 -3 -52 -8z"/>
<path d="M6880 2800 c0 -5 7 -7 15 -4 8 4 15 8 15 10 0 2 -7 4 -15 4 -8 0 -15
-4 -15 -10z"/>
<path d="M6980 2786 c28 -17 50 -21 35 -7 -6 5 -21 12 -35 15 l-25 7 25 -15z"/>
<path d="M6945 2771 c-3 -6 3 -9 14 -8 11 0 17 5 15 9 -7 11 -22 10 -29 -1z"/>
<path d="M7035 2770 c-3 -5 -1 -10 4 -10 6 0 11 5 11 10 0 6 -2 10 -4 10 -3 0
-8 -4 -11 -10z"/>
<path d="M6521 2754 c0 -11 7 -28 17 -37 22 -20 37 -22 25 -4 -4 6 -8 18 -9
25 -2 8 -6 17 -10 20 -4 4 -4 -1 -1 -10 4 -10 2 -18 -3 -18 -5 0 -11 10 -13
23 -4 21 -4 21 -6 1z"/>
<path d="M6990 2757 c0 -3 15 -10 32 -16 18 -6 28 -7 23 -2 -12 10 -55 25 -55
18z"/>
<path d="M6675 2730 c4 -6 15 -10 27 -10 14 0 18 -5 14 -15 -3 -8 0 -15 7 -15
15 0 75 40 62 41 -72 7 -115 6 -110 -1z m93 -4 c-2 -1 -10 -7 -19 -14 -13 -10
-18 -10 -22 0 -3 8 5 14 20 14 13 1 23 1 21 0z"/>
<path d="M6583 2719 c15 -9 70 -9 62 -1 -2 3 -21 6 -41 7 -24 1 -31 -1 -21 -6z"/>
<path d="M6586 2689 c6 -11 41 -12 47 -1 3 4 -8 7 -24 8 -15 1 -26 -3 -23 -7z"/>
<path d="M6520 2661 c0 -6 5 -13 10 -16 6 -3 10 1 10 9 0 9 -4 16 -10 16 -5 0
-10 -4 -10 -9z"/>
<path d="M6551 2648 c-1 -9 -4 -18 -8 -21 -5 -2 -2 -2 5 0 8 1 20 3 28 3 9 0
12 5 9 10 -4 6 -10 8 -15 5 -4 -3 -11 1 -13 7 -4 8 -6 7 -6 -4z"/>
<path d="M6451 2636 c-19 -7 -36 -18 -37 -24 -1 -7 0 -8 3 -2 2 5 14 10 26 9
21 0 21 -1 3 -8 -11 -4 -15 -10 -9 -14 13 -8 46 16 49 37 1 9 2 16 1 15 -1 0
-17 -6 -36 -13z"/>
<path d="M6364 2594 c-18 -14 -18 -14 6 -3 31 14 36 19 24 19 -6 0 -19 -7 -30
-16z"/>
<path d="M6380 2580 c-8 -5 -25 -10 -37 -10 -13 0 -23 -4 -23 -10 0 -5 6 -10
13 -9 20 1 93 37 77 38 -8 0 -22 -4 -30 -9z"/>
<path d="M673 3040 c-30 -12 -29 -18 2 -12 14 2 25 8 25 13 0 5 -1 9 -2 8 -2
0 -13 -4 -25 -9z"/>
<path d="M6610 3028 c0 -6 -10 -23 -22 -37 l-23 -24 27 19 c27 19 44 54 27 54
-5 0 -9 -5 -9 -12z"/>
<path d="M4682 3004 c14 -14 21 -15 30 -6 8 8 9 12 1 12 -6 0 -20 3 -30 6 -17
7 -17 6 -1 -12z"/>
<path d="M3005 2940 c-3 -5 -2 -10 4 -10 5 0 13 5 16 10 3 6 2 10 -4 10 -5 0
-13 -4 -16 -10z"/>
<path d="M6330 2979 c0 -5 5 -7 10 -4 6 3 10 1 10 -4 0 -6 -5 -11 -10 -11 -16
0 46 -87 67 -94 17 -6 17 -5 1 7 -10 8 -14 18 -10 22 4 5 1 4 -7 0 -11 -6 -13
-4 -8 9 5 11 -1 32 -14 52 -20 33 -39 44 -39 23z m50 -63 c0 -5 -7 -1 -15 10
-8 10 -14 24 -14 29 0 6 6 1 14 -9 8 -11 15 -24 15 -30z"/>
<path d="M570 2929 c0 -5 -5 -7 -12 -3 -7 4 -8 3 -4 -4 4 -6 13 -9 21 -6 8 4
12 10 9 15 -7 12 -14 11 -14 -2z"/>
<path d="M5200 2851 c0 -6 4 -13 10 -16 6 -3 7 1 4 9 -7 18 -14 21 -14 7z"/>
<path d="M1270 2869 c0 -5 -4 -8 -9 -5 -10 7 -34 -19 -37 -40 -2 -11 2 -11 19
-2 12 6 24 11 27 10 3 -2 6 9 7 23 1 14 0 25 -3 25 -2 0 -4 -5 -4 -11z m0 -27
c0 -4 -9 -8 -21 -9 -17 -2 -18 1 -9 12 12 14 30 12 30 -3z"/>
<path d="M1167 2783 c-4 -6 -1 -14 5 -16 7 -3 2 -6 -12 -6 -19 -1 -21 -4 -11
-10 15 -9 51 6 51 22 0 4 -4 6 -9 3 -5 -4 -11 -1 -13 6 -3 9 -6 9 -11 1z"/>
<path d="M1075 2710 c3 -5 8 -10 11 -10 2 0 4 5 4 10 0 6 -5 10 -11 10 -5 0
-7 -4 -4 -10z"/>
<path d="M1061 2684 c0 -11 3 -14 6 -6 3 7 2 16 -1 19 -3 4 -6 -2 -5 -13z"/>
<path d="M1107 2669 c-6 -20 -9 -22 -18 -9 -9 13 -10 13 -6 0 2 -9 14 -14 28
-13 l24 3 -25 -15 c-14 -8 -19 -14 -12 -15 8 0 27 8 43 17 29 17 38 33 19 33
-5 0 -10 -4 -10 -10 0 -19 -21 -10 -29 12 -8 21 -8 21 -14 -3z"/>
<path d="M1060 2651 c0 -6 4 -13 10 -16 6 -3 7 1 4 9 -7 18 -14 21 -14 7z"/>
<path d="M6305 2900 c-3 -5 -1 -10 4 -10 6 0 11 5 11 10 0 6 -2 10 -4 10 -3 0
-8 -4 -11 -10z"/>
<path d="M4493 2742 c0 -15 2 -21 4 -14 3 6 9 12 14 12 5 0 5 -10 0 -22 -5
-13 -5 -32 0 -43 6 -15 8 -16 8 -4 1 9 4 30 7 47 5 24 2 32 -14 41 -17 9 -19
7 -19 -17z"/>
<path d="M4560 2690 c0 -5 9 -10 20 -10 11 0 20 5 20 10 0 6 -9 10 -20 10 -11
0 -20 -4 -20 -10z"/>
<path d="M4531 2675 c1 -11 1 -27 0 -35 -1 -13 -2 -13 -11 0 -14 22 -11 -1 3
-28 l13 -23 12 25 c9 20 8 31 -4 53 -12 22 -15 24 -13 8z m10 -52 c-12 -20
-14 -14 -5 12 4 9 9 14 11 11 3 -2 0 -13 -6 -23z"/>
<path d="M4821 2621 c-9 -6 -10 -11 -2 -15 6 -4 11 -2 11 5 0 7 7 4 15 -7 8
-10 15 -14 15 -8 0 18 -24 34 -39 25z"/>
<path d="M4457 2552 c10 -18 19 -28 21 -23 4 13 3 22 -3 19 -2 -2 -11 6 -20
17 -12 15 -12 12 2 -13z"/>
<path d="M4646 2492 c-2 -4 -1 -14 3 -21 6 -10 10 -9 14 3 6 16 -8 32 -17 18z"/>
<path d="M4533 2455 c-9 -10 -8 -14 6 -18 12 -3 18 0 17 9 -3 21 -10 23 -23 9z"/>
<path d="M4649 2438 c9 -12 10 -18 2 -18 -6 0 -3 -9 6 -20 10 -11 22 -20 27
-20 5 0 2 8 -7 18 -10 10 -15 21 -12 24 3 3 -3 11 -12 19 -16 13 -17 12 -4 -3z"/>
<path d="M4543 2404 c-5 -13 -7 -13 -14 -2 -5 7 -9 8 -9 2 0 -6 8 -18 18 -27
17 -15 18 -15 17 13 0 34 -3 37 -12 14z"/>
<path d="M4703 2353 c15 -2 39 -2 55 0 15 2 2 4 -28 4 -30 0 -43 -2 -27 -4z"/>
<path d="M4610 2336 c0 -2 7 -7 16 -10 8 -3 12 -2 9 4 -6 10 -25 14 -25 6z"/>
<path d="M4665 2249 c42 -9 108 -10 122 -1 6 4 -26 7 -70 8 -51 0 -71 -3 -52
-7z"/>
<path d="M4640 2830 c0 -12 40 -34 47 -26 9 8 -17 36 -33 36 -8 0 -14 -4 -14
-10z"/>
<path d="M5990 2825 c0 -15 53 -22 105 -15 l60 9 -60 -3 c-33 -2 -70 0 -82 5
-13 5 -23 6 -23 4z"/>
<path d="M6093 2793 c15 -2 37 -2 50 0 12 2 0 4 -28 4 -27 0 -38 -2 -22 -4z"/>
<path d="M6296 2805 c-3 -8 -12 -12 -21 -9 -8 3 -15 2 -15 -3 0 -5 20 -10 45
-12 25 -1 45 2 45 7 0 5 -12 7 -27 5 -20 -3 -24 -2 -14 5 8 6 9 12 3 16 -5 3
-12 -1 -16 -9z"/>
<path d="M4890 2661 c0 -6 5 -13 10 -16 6 -3 10 1 10 9 0 9 -4 16 -10 16 -5 0
-10 -4 -10 -9z"/>
<path d="M5148 2771 c-15 -17 -14 -18 8 -18 14 0 27 4 31 10 4 7 0 8 -11 4
-14 -5 -17 -3 -12 8 7 20 4 19 -16 -4z"/>
<path d="M5185 2746 c-17 -12 -16 -13 8 -20 17 -4 29 -15 33 -32 4 -14 9 -23
11 -20 6 6 -16 74 -26 81 -5 2 -16 -2 -26 -9z"/>
<path d="M2660 2771 c0 -18 29 -31 76 -36 27 -2 74 -11 104 -20 65 -18 70 -18
70 -5 0 6 -15 11 -32 11 -23 1 -26 3 -11 6 12 2 38 0 57 -5 33 -10 35 -8 45
19 l10 29 -49 0 c-27 0 -60 -5 -74 -11 -14 -7 -33 -8 -43 -4 -10 4 -38 9 -63
11 -25 2 -55 6 -67 9 -13 3 -23 1 -23 -4z m270 -21 c8 -5 12 -11 9 -14 -3 -3
-14 1 -25 9 -21 16 -8 20 16 5z"/>
<path d="M2920 2700 c0 -5 5 -10 10 -10 6 0 10 5 10 10 0 6 -4 10 -10 10 -5 0
-10 -4 -10 -10z"/>
<path d="M3402 2747 c-24 -25 -28 -37 -12 -37 6 0 10 7 10 15 0 25 33 36 55
17 20 -17 20 -17 1 6 -24 27 -27 27 -54 -1z"/>
<path d="M3468 2693 c6 -2 18 -2 25 0 6 3 1 5 -13 5 -14 0 -19 -2 -12 -5z"/>
<path d="M3520 2735 c0 -8 5 -15 10 -15 6 0 10 7 10 15 0 8 -4 15 -10 15 -5 0
-10 -7 -10 -15z"/>
<path d="M680 2670 c-21 -6 -22 -8 -8 -14 21 -10 52 -4 51 9 -2 13 -13 14 -43
5z"/>
<path d="M590 2656 c0 -2 7 -6 15 -10 8 -3 15 -1 15 4 0 6 -7 10 -15 10 -8 0
-15 -2 -15 -4z"/>
<path d="M638 2643 c7 -3 16 -2 19 1 4 3 -2 6 -13 5 -11 0 -14 -3 -6 -6z"/>
<path d="M3507 2650 c-8 -11 -17 -17 -21 -13 -4 4 -4 0 0 -10 3 -9 11 -14 17
-10 6 4 8 0 4 -10 -6 -16 -4 -16 22 -2 19 9 28 21 26 32 -2 10 -4 21 -4 26 -2
15 -30 6 -44 -13z m30 -4 c-3 -8 -1 -16 6 -19 6 -2 3 -6 -7 -10 -9 -4 -15 -3
-11 2 3 5 0 13 -6 17 -8 4 -7 9 2 15 19 12 22 11 16 -5z"/>
<path d="M5120 2590 c0 -5 10 -15 23 -21 19 -11 20 -10 10 3 -7 8 -10 18 -6
21 3 4 -1 7 -10 7 -9 0 -17 -4 -17 -10z"/>
<path d="M685 2590 l-50 -7 53 -1 c29 -1 52 2 52 8 0 6 -1 9 -2 8 -2 0 -25 -4
-53 -8z"/>
<path d="M3335 2360 c-11 -5 -15 -9 -8 -9 6 -1 14 -9 17 -19 5 -15 82 -62 101
-62 3 0 5 17 5 39 0 34 -3 39 -27 45 -16 3 -37 8 -48 10 -11 3 -29 1 -40 -4z
m39 -32 c6 -4 18 -7 26 -7 9 0 6 5 -7 11 -13 6 -23 15 -23 21 0 5 11 2 25 -7
14 -9 31 -14 38 -11 7 4 4 0 -5 -8 -21 -17 -24 -31 -5 -24 8 3 14 -1 14 -9 0
-21 -81 30 -84 53 -2 13 -1 14 4 3 3 -8 11 -18 17 -22z"/>
<path d="M5195 2350 c-3 -5 1 -10 10 -10 9 0 13 5 10 10 -3 6 -8 10 -10 10 -2
0 -7 -4 -10 -10z"/>
<path d="M1433 2293 c-19 -7 -16 -19 6 -20 14 -1 18 3 14 13 -3 8 -6 14 -7 13
0 0 -7 -3 -13 -6z"/>
<path d="M4681 2197 c2 -1 11 -8 20 -15 13 -9 16 -9 16 3 0 8 -9 15 -20 15
-11 0 -18 -1 -16 -3z"/>
<path d="M4783 2173 c9 -20 17 -23 61 -21 l51 1 -48 6 c-61 8 -65 24 -7 32 44
7 44 7 -12 6 -55 0 -56 -1 -45 -24z"/>
<path d="M4740 2170 c8 -5 20 -10 25 -10 6 0 3 5 -5 10 -8 5 -19 10 -25 10 -5
0 -3 -5 5 -10z"/>
<path d="M4848 2173 c7 -3 16 -2 19 1 4 3 -2 6 -13 5 -11 0 -14 -3 -6 -6z"/>
<path d="M3392 2105 c4 -4 2 -18 -3 -32 -12 -33 -3 -44 72 -82 49 -26 62 -29
78 -19 15 9 19 22 18 50 -1 20 -4 34 -7 29 -3 -4 -14 -13 -25 -19 -16 -9 -17
-11 -4 -12 24 0 30 -25 10 -37 -12 -7 -23 -8 -32 -2 -11 8 -10 9 5 7 10 -2 21
3 24 11 3 10 -2 11 -19 6 -13 -4 -20 -4 -16 1 4 4 -3 14 -15 21 l-23 13 25 -5
c15 -4 33 0 45 10 12 10 14 15 5 12 -8 -2 -34 4 -57 14 -24 10 -43 14 -43 9 0
-6 4 -10 9 -10 5 0 8 -8 6 -17 -1 -10 9 -28 24 -40 14 -12 21 -22 14 -23 -18
0 -53 41 -53 62 0 10 -4 18 -10 18 -5 0 -7 6 -4 14 3 7 -3 16 -13 20 -9 4 -14
4 -11 1z m85 -51 c-3 -3 -12 -4 -19 -1 -8 3 -5 6 6 6 11 1 17 -2 13 -5z"/>
<path d="M3545 1960 c-3 -5 -1 -10 4 -10 6 0 11 5 11 10 0 6 -2 10 -4 10 -3 0
-8 -4 -11 -10z"/>
<path d="M5128 1778 c-19 -15 -85 -133 -69 -124 14 9 14 -4 1 -24 -9 -13 -10
-13 -10 0 -1 18 -19 -23 -30 -67 -5 -19 -4 -31 1 -27 5 3 9 16 9 30 0 14 4 23
9 20 10 -7 47 73 43 92 -2 8 1 11 7 8 5 -4 15 4 22 16 7 13 17 26 23 30 6 4 7
10 3 15 -5 4 -12 1 -17 -7 -8 -12 -10 -12 -10 -2 0 8 9 16 19 19 11 3 22 11
25 19 7 17 -5 18 -26 2z m-27 -75 c-12 -20 -14 -14 -5 12 4 9 9 14 11 11 3 -2
0 -13 -6 -23z"/>
<path d="M5359 1716 c12 -15 12 -19 1 -26 -11 -7 -10 -11 3 -25 16 -16 21 -30
18 -48 -1 -5 4 -5 10 -1 9 5 10 0 5 -19 -3 -14 -1 -29 4 -32 7 -4 10 7 9 34
-2 23 -7 37 -13 34 -5 -4 -7 1 -3 11 7 19 -15 70 -35 82 -8 5 -8 1 1 -10z m31
-61 c0 -5 -5 -3 -10 5 -5 8 -10 20 -10 25 0 6 5 3 10 -5 5 -8 10 -19 10 -25z"/>
<path d="M5308 1686 c-6 -12 -15 -24 -21 -27 -5 -4 -5 -9 2 -13 7 -5 17 5 24
23 7 17 16 29 19 26 3 -4 8 -2 12 3 3 5 -2 9 -10 9 -8 0 -20 -10 -26 -21z"/>
<path d="M5326 1664 c-4 -9 -4 -19 -1 -22 2 -3 7 3 11 12 4 9 4 19 1 22 -2 3
-7 -3 -11 -12z"/>
<path d="M5346 1633 c-6 -14 -5 -15 5 -6 7 7 10 15 7 18 -3 3 -9 -2 -12 -12z"/>
<path d="M5250 1620 c-7 -14 -7 -20 0 -20 5 0 10 6 10 14 0 8 6 17 13 19 9 4
9 6 0 6 -7 1 -17 -8 -23 -19z"/>
<path d="M5361 1584 c0 -11 3 -14 6 -6 3 7 2 16 -1 19 -3 4 -6 -2 -5 -13z"/>
<path d="M5250 1571 c0 -5 7 -11 14 -14 10 -4 13 -1 9 9 -6 15 -23 19 -23 5z"/>
<path d="M5380 1530 c0 -6 4 -9 9 -5 5 3 12 -5 14 -17 5 -22 5 -21 4 1 -2 24
-27 44 -27 21z"/>
<path d="M5092 1479 c-9 -17 -27 -46 -39 -65 -14 -22 -17 -31 -7 -27 8 3 14
10 14 17 0 7 4 6 9 -3 6 -10 10 -10 16 -1 5 9 9 9 14 1 4 -6 7 5 7 25 l0 35
-14 -26 c-7 -15 -16 -25 -18 -22 -10 10 37 88 48 81 7 -4 8 -3 4 4 -11 18 -15
15 -34 -19z"/>
<path d="M5391 1452 c-1 -13 -5 -20 -11 -17 -5 3 -7 0 -4 -8 2 -7 0 -26 -6
-42 -6 -15 -9 -30 -6 -32 7 -7 38 96 33 110 -3 6 -6 2 -6 -11z"/>
<path d="M5026 1363 c-3 -4 -6 -11 -6 -17 0 -6 5 -4 10 4 5 8 10 10 10 4 0 -7
7 -14 14 -17 10 -4 13 -1 10 8 -6 16 -29 26 -38 18z"/>
<path d="M5111 1324 c0 -11 3 -14 6 -6 3 7 2 16 -1 19 -3 4 -6 -2 -5 -13z"/>
<path d="M5080 1291 c0 -12 50 -44 58 -37 3 3 -1 6 -9 7 -8 1 -3 5 11 9 l25 8
-25 1 c-20 1 -22 3 -10 11 13 8 12 10 -2 10 -10 0 -18 -4 -18 -10 0 -5 -5 -10
-11 -10 -5 0 -7 5 -4 10 3 6 1 10 -4 10 -6 0 -11 -4 -11 -9z"/>
<path d="M5294 1293 c4 -7 2 -22 -4 -34 -7 -11 -10 -23 -7 -25 2 -2 10 7 17
21 11 21 11 27 0 38 -10 9 -11 9 -6 0z"/>
<path d="M5325 1290 c3 -5 8 -10 11 -10 2 0 4 5 4 10 0 6 -5 10 -11 10 -5 0
-7 -4 -4 -10z"/>
<path d="M5170 1235 c14 -7 27 -11 30 -9 6 7 -22 24 -40 23 -9 0 -5 -6 10 -14z"/>
<path d="M5303 1230 c-3 -11 -9 -17 -14 -14 -5 3 -17 1 -26 -5 -15 -8 -13 -9
11 -7 19 2 32 11 37 25 5 11 6 21 3 21 -3 0 -8 -9 -11 -20z"/>
<path d="M3544 746 c3 -13 2 -26 -3 -28 -4 -2 -6 -40 -3 -85 l5 -83 114 0 114
0 -3 108 -3 107 -114 3 -113 3 6 -25z m34 -161 c0 -11 -6 3 -13 30 -7 28 -13
59 -13 70 0 11 6 -2 13 -30 7 -27 13 -59 13 -70z"/>
<path d="M3163 714 c-36 -31 -50 -50 -47 -62 4 -11 3 -13 -3 -5 -6 9 -15 7
-33 -8 l-25 -19 84 2 83 3 2 68 c0 37 -1 67 -4 67 -3 0 -28 -21 -57 -46z"/>
<path d="M4081 690 l-83 -70 86 0 86 0 0 70 c0 39 -1 70 -2 70 -2 -1 -41 -32
-87 -70z"/>
<path d="M3003 425 c-6 -19 -7 -33 -2 -29 5 3 9 -1 9 -8 0 -9 3 -9 10 2 12 19
13 33 1 26 -4 -3 -6 6 -3 19 7 37 -3 30 -15 -10z"/>
<path d="M3031 445 c1 -19 18 -51 18 -35 0 8 -4 22 -9 30 -5 8 -9 11 -9 5z"/>
<path d="M2955 212 c-3 -3 -5 -10 -5 -16 0 -6 5 -4 10 4 7 10 10 11 10 2 0 -8
8 -10 26 -6 19 5 25 4 20 -5 -4 -6 -2 -11 4 -11 7 0 10 6 8 12 -5 13 -63 29
-73 20z"/>
<path d="M2916 195 c-9 -24 -7 -32 4 -15 8 13 10 12 10 -2 0 -10 -6 -18 -14
-18 -29 0 -24 -17 9 -33 32 -15 34 -15 32 3 -1 14 -7 18 -22 16 -11 -2 -14 -1
-7 1 14 5 16 32 3 51 -7 11 -10 10 -15 -3z"/>
<path d="M3180 300 l0 -40 40 0 40 0 0 40 0 40 -40 0 -40 0 0 -40z"/>
<path d="M3710 300 l0 -40 45 0 45 0 0 40 0 40 -45 0 -45 0 0 -40z"/>
<path d="M4200 300 c0 -38 2 -40 29 -40 28 0 61 22 61 40 0 18 -33 40 -61 40
-27 0 -29 -2 -29 -40z"/>
</g>
</svg>
